<?xml version="1.0" encoding="UTF-8"?>
<svg width="30px" height="30px" viewBox="0 0 30 30" version="1.1" xmlns="http://www.w3.org/2000/svg" xmlns:xlink="http://www.w3.org/1999/xlink">
    <!-- Generator: Sketch 49.3 (51167) - http://www.bohemiancoding.com/sketch -->
    <title>syncing Mac Copy</title>
    <desc>Created with Sketch.</desc>
    <defs></defs>
    <g id="syncing-Mac-Copy" stroke="none" stroke-width="1" fill="none" fill-rule="evenodd">
        <g id="NUXEO-X" transform="translate(3.000000, 3.000000)" fill="#FFFFFF" fill-rule="nonzero">
            <polygon id="Combined-Shape" points="0 4.87323192 7.12676808 12 0 19.1235655 0 24 4.87643448 24 24 4.87323192 24 0 19.1267681 0 12 7.12356552 4.87643448 0 0 0"></polygon>
        </g>
        <g id="sync_state" transform="translate(15.000000, 15.000000)" fill="#0062FF" fill-rule="nonzero">
            <path d="M7,1.16666667 C3.78358974,1.16666667 1.16666667,3.78269231 1.16666667,7 C1.16666667,10.2164103 3.78358974,12.8333333 7,12.8333333 C10.2164103,12.8333333 12.8333333,10.2164103 12.8333333,7 C12.8333333,3.78269231 10.2164103,1.16666667 7,1.16666667 Z M2.99294872,5.66641026 C3.56282051,4.05641026 5.09384615,2.97589744 6.80076923,2.97589744 C8.00064103,2.97589744 9.15115385,3.50717949 9.94179487,4.33371795 L9.94179487,3.82307692 C9.94179487,3.57538462 10.1428205,3.37435897 10.3905128,3.37435897 C10.6382051,3.37435897 10.8392308,3.57538462 10.8392308,3.82307692 L10.8392308,5.81628205 C10.8392308,6.06397436 10.6382051,6.265 10.3905128,6.265 L8.39641026,6.265 C8.14871795,6.265 7.94769231,6.06397436 7.94769231,5.81628205 C7.94769231,5.56858974 8.14871795,5.3675641 8.39641026,5.3675641 L9.63307692,5.3675641 C9.04705128,4.47730769 7.95217949,3.8724359 6.80076923,3.8724359 C5.4725641,3.8724359 4.2825641,4.71423077 3.83833333,5.96525641 C3.77282051,6.14923077 3.59961538,6.26410256 3.41564103,6.26410256 C3.36538462,6.26410256 3.31512821,6.25512821 3.26576923,6.23807692 C3.0324359,6.15641026 2.90948718,5.89974359 2.99294872,5.66641026 Z M11.0070513,8.33358974 C10.4362821,9.94358974 8.90615385,11.025 7.19923077,11.025 C6.00025641,11.025 4.84974359,10.4937179 4.05910256,9.66807692 L4.05910256,10.1769231 C4.05910256,10.4246154 3.85807692,10.625641 3.61038462,10.625641 C3.36269231,10.625641 3.16166667,10.4246154 3.16166667,10.1769231 L3.16166667,8.18371795 C3.16166667,7.93423077 3.36269231,7.735 3.61038462,7.735 L5.60448718,7.735 C5.85217949,7.735 6.05320513,7.93423077 6.05320513,8.18371795 C6.05320513,8.43051282 5.85217949,8.6324359 5.60448718,8.6324359 L4.36692308,8.6324359 C4.95384615,9.52269231 6.04871795,10.1275641 7.19923077,10.1275641 C8.52653846,10.1275641 9.7174359,9.28576923 10.1616667,8.03384615 C10.2442308,7.79961538 10.5008974,7.6775641 10.7342308,7.76102564 C10.9675641,7.84358974 11.0905128,8.09935897 11.0070513,8.33358974 Z" id="Shape" transform="translate(7.000000, 7.000000) rotate(-260.000000) translate(-7.000000, -7.000000) "></path>
        </g>
    </g>
</svg>
