<svg width="316" height="316" viewBox="0 0 316 316" fill="none" xmlns="http://www.w3.org/2000/svg">
<g clip-path="url(#clip0_571_31484)">
<path d="M159.2 161.675L152.375 168.503L114.409 206.479L114.41 206.48C95.0944 225.82 91.3457 254.774 103.066 277.909L105.601 282.909L100.048 283.679C97.5523 284.025 95.002 284.219 92.4004 284.219C58.599 284.219 31.2188 256.755 31.2188 222.929C31.2189 189.1 58.6023 161.675 92.4004 161.675H159.2Z" fill="#F1CB60" stroke="white" stroke-width="5.3673"/>
<path d="M161.863 223.528C161.863 250.858 179.632 273.984 204.244 282.042L209.613 283.799L206.171 288.28C204.697 290.199 203.069 292.185 201.168 294.053L201.169 294.054C177.272 317.982 138.527 317.982 114.63 294.054C90.7354 270.129 90.7354 231.344 114.63 207.419L114.737 207.312L155.033 166.965L161.863 160.126V223.528Z" fill="#52A1FF" stroke="white" stroke-width="5.3673"/>
<path d="M168.975 163.484L206.938 201.495C226.257 220.806 255.17 224.584 278.189 212.857L283.198 210.306L283.968 215.873C284.313 218.371 284.508 220.924 284.508 223.528C284.508 257.357 257.124 284.783 223.326 284.783C189.528 284.783 162.145 257.357 162.145 223.528V156.646L168.975 163.484Z" fill="#52A1FF" stroke="white" stroke-width="5.3673"/>
<path d="M287.968 109.621C289.701 110.956 291.383 112.384 293.011 113.93L293.705 114.6L293.721 114.615L293.735 114.629C317.63 138.554 317.63 177.339 293.735 201.264C269.838 225.192 231.094 225.192 207.196 201.264L207.089 201.157L166.793 160.809L159.975 153.983H223.291C250.543 153.983 273.676 136.196 281.725 111.548L283.482 106.166L287.968 109.621Z" fill="#06C9A4" stroke="white" stroke-width="5.3673"/>
<path d="M223.29 31.1108C257.091 31.1108 284.472 58.5754 284.472 92.4009C284.472 126.23 257.088 153.655 223.29 153.655H156.496L163.314 146.829L201.28 108.814C220.562 89.5077 224.344 60.5534 212.624 37.4214L210.09 32.4214L215.643 31.6509C218.138 31.3049 220.688 31.1108 223.29 31.1108Z" fill="#06C9A4" stroke="white" stroke-width="5.3673"/>
<path d="M114.521 21.9453C138.419 -1.98215 177.163 -1.98202 201.061 21.9453C224.953 45.8676 224.956 84.6509 201.062 108.542L200.953 108.652L160.657 148.999L153.827 155.838V92.4365C153.827 65.1407 136.058 41.9797 111.447 33.9229L106.023 32.1465L109.542 27.6543C111.031 25.7534 112.682 23.7871 114.521 21.9453Z" fill="#6E33FF" stroke="white" stroke-width="5.3673"/>
<path d="M92.3301 31.2173C126.128 31.2174 153.512 58.6426 153.512 92.4712V153.69V159.385L146.646 152.516L110.4 116.225L110.37 116.195L110.34 116.164L108.773 114.526C89.4526 95.1918 60.4773 91.3832 37.4277 103.108L32.3408 105.696L31.6445 100.031C31.3429 97.577 31.1484 95.0763 31.1484 92.4712C31.1486 58.6426 58.532 31.2173 92.3301 31.2173Z" fill="#6E33FF" stroke="white" stroke-width="5.3673"/>
<path d="M157.5 163C160.538 163 163 160.761 163 158C163 155.239 160.538 153 157.5 153C154.462 153 152 155.239 152 158C152 160.761 154.462 163 157.5 163Z" fill="white"/>
<path d="M155.679 160.942L146.025 160.944L92.3256 160.951L92.3256 160.953C64.992 160.97 41.8677 178.793 33.7963 203.439L32.0533 208.767L27.5822 205.385C25.5728 203.865 23.6323 202.199 21.7927 200.359C-2.10848 176.458 -2.04922 137.678 21.8694 113.759C45.7902 89.8383 84.5456 89.8089 108.444 113.708L155.679 160.942Z" fill="#F1CB60" stroke="white" stroke-width="5.3673"/>
</g>
<defs>
<clipPath id="clip0_571_31484">
<rect width="316" height="316" fill="white"/>
</clipPath>
</defs>
</svg>
