<svg width="30" height="30" viewBox="0 0 30 30" fill="none" xmlns="http://www.w3.org/2000/svg">
<g clip-path="url(#clip0_56_13)">
<path d="M15.1139 14.6511L14.466 14.0029L10.8616 10.3975L10.8617 10.3975C9.02795 8.56138 8.67206 5.81258 9.78474 3.61622L10.0254 3.14154L9.49822 3.06843C9.26129 3.03559 9.01917 3.01717 8.77219 3.01717C5.56319 3.01717 2.96381 5.62451 2.96381 8.83584C2.96382 12.0475 5.56351 14.6511 8.77219 14.6511H15.1139Z" fill="#F1CB60" stroke="#1E1E1E" stroke-width="0.644076"/>
<path d="M15.3668 8.77895C15.3668 6.18433 17.0537 3.98882 19.3903 3.22383L19.9 3.05702L19.5732 2.63161C19.4333 2.44943 19.2787 2.26088 19.0983 2.08354L19.0984 2.08345C16.8297 -0.188199 13.1513 -0.188199 10.8826 2.08345C8.61416 4.35481 8.61416 8.03692 10.8826 10.3083L10.8928 10.3184L14.7184 14.1489L15.3668 14.7981V8.77895Z" fill="#52A1FF" stroke="#1E1E1E" stroke-width="0.644076"/>
<path d="M16.0419 14.4794L19.646 10.8707C21.4801 9.0374 24.225 8.67873 26.4103 9.79205L26.8859 10.0342L26.959 9.50572C26.9917 9.26857 27.0102 9.0262 27.0102 8.77898C27.0102 5.56737 24.4105 2.96363 21.2018 2.96363C17.9931 2.96363 15.3935 5.56737 15.3935 8.77898V15.1285L16.0419 14.4794Z" fill="#52A1FF" stroke="#1E1E1E" stroke-width="0.644076"/>
<path d="M27.3387 19.593C27.5033 19.4662 27.6629 19.3306 27.8175 19.1839L27.8834 19.1203L27.8849 19.1188L27.8862 19.1175C30.1547 16.8462 30.1547 13.164 27.8862 10.8927C25.6175 8.62102 21.9393 8.62102 19.6705 10.8927L19.6603 10.9028L15.8348 14.7333L15.1875 15.3814H21.1985C23.7857 15.3814 25.9819 17.07 26.746 19.41L26.9128 19.921L27.3387 19.593Z" fill="#06C9A4" stroke="#1E1E1E" stroke-width="0.644076"/>
<path d="M21.1984 27.0464C24.4073 27.0464 27.0068 24.439 27.0068 21.2277C27.0068 18.0161 24.4071 15.4125 21.1984 15.4125H14.8572L15.5045 16.0605L19.1088 19.6695C20.9394 21.5024 21.2984 24.2512 20.1858 26.4473L19.9452 26.922L20.4724 26.9951C20.7093 27.028 20.9514 27.0464 21.1984 27.0464Z" fill="#06C9A4" stroke="#1E1E1E" stroke-width="0.644076"/>
<path d="M10.8723 27.9165C13.1411 30.1881 16.8193 30.1881 19.0881 27.9165C21.3563 25.6454 21.3566 21.9635 19.0882 19.6953L19.0778 19.6849L15.2523 15.8545L14.6038 15.2052V21.2243C14.6038 23.8157 12.9169 26.0145 10.5804 26.7794L10.0655 26.9481L10.3996 27.3746C10.5409 27.555 10.6977 27.7417 10.8723 27.9165Z" fill="#6E33FF" stroke="#1E1E1E" stroke-width="0.644076"/>
<path d="M8.76554 27.0363C11.9742 27.0363 14.574 24.4327 14.574 21.2211V15.4092V14.8685L13.9221 15.5206L10.481 18.966L10.4782 18.9688L10.4753 18.9718L10.3266 19.1273C8.49236 20.9628 5.74154 21.3244 3.55329 20.2113L3.07036 19.9656L3.00425 20.5034C2.97562 20.7364 2.95715 20.9738 2.95715 21.2211C2.95717 24.4327 5.55686 27.0363 8.76554 27.0363Z" fill="#6E33FF" stroke="#1E1E1E" stroke-width="0.644076"/>
<path d="M14.9525 14.5253C15.2409 14.5253 15.4747 14.7379 15.4747 15C15.4747 15.2622 15.2409 15.4747 14.9525 15.4747C14.6641 15.4747 14.4304 15.2622 14.4304 15C14.4304 14.7379 14.6641 14.5253 14.9525 14.5253Z" fill="#1E1E1E"/>
<path d="M14.7797 14.7206L13.8631 14.7204L8.76511 14.7198L8.76511 14.7196C6.17015 14.718 3.9748 13.026 3.20853 10.6861L3.04305 10.1803L2.61859 10.5014C2.42782 10.6457 2.2436 10.8039 2.06895 10.9785C-0.200151 13.2476 -0.194526 16.9293 2.07623 19.2001C4.34719 21.471 8.0265 21.4738 10.2954 19.2049L14.7797 14.7206Z" fill="#F1CB60" stroke="#1E1E1E" stroke-width="0.644076"/>
</g>
<circle cx="22" cy="22" r="8" fill="white"/>
<path d="M22.0379 14.6693C17.975 14.6693 14.6693 17.975 14.6693 22.0379C14.6693 26.1008 17.975 29.4065 22.0379 29.4065C26.1008 29.4065 29.4065 26.1008 29.4065 22.0379C29.4065 17.975 26.1008 14.6693 22.0379 14.6693ZM27.1959 18.5282C27.1959 18.5282 26.5339 21.0856 26.5248 21.106C26.4126 21.3928 26.0997 21.5255 25.8662 21.4529L23.3518 20.8136C23.048 20.7365 22.8654 20.427 22.9437 20.1243C23.0196 19.8205 23.328 19.6357 23.6318 19.7162L24.9944 20.0631C23.9787 18.4352 22.1161 17.8491 20.4769 18.3286C18.3411 18.9499 17.1179 21.1831 17.7403 23.3121C18.3525 25.4218 20.5642 26.679 22.726 26.0509C23.0253 25.9602 23.3416 26.1348 23.4277 26.4364C23.5162 26.7368 23.3438 27.0519 23.0423 27.1381C20.3182 27.9328 17.4501 26.3774 16.6498 23.6306C15.8528 20.8952 17.4229 18.0339 20.1595 17.2392C22.1898 16.6463 24.4888 17.3175 25.8333 19.2832L26.0974 18.2493C26.1734 17.9443 26.4829 17.7618 26.7867 17.8412C27.0905 17.9171 27.273 18.2255 27.1959 18.5282Z" fill="#FF9E00"/>
<defs>
<clipPath id="clip0_56_13">
<rect width="30" height="30" fill="white" transform="matrix(1 0 0 -1 0 30)"/>
</clipPath>
</defs>
</svg>
