<?xml version="1.0" encoding="utf-8"?>
<!-- Generator: Adobe Illustrator 16.0.4, SVG Export Plug-In . SVG Version: 6.00 Build 0)  -->
<!DOCTYPE svg PUBLIC "-//W3C//DTD SVG 1.1//EN" "http://www.w3.org/Graphics/SVG/1.1/DTD/svg11.dtd">
<svg version="1.1" id="Calque_1" xmlns="http://www.w3.org/2000/svg" xmlns:xlink="http://www.w3.org/1999/xlink" x="0px" y="0px"
	 width="283.465px" height="283.465px" viewBox="0 0 283.465 283.465" enable-background="new 0 0 283.465 283.465"
	 xml:space="preserve">
<g>
	<polygon fill="#173D7D" points="35.868,89.303 88.711,89.303 62.298,62.881 	"/>
	<polygon fill="#122142" points="35.868,36.458 35.868,89.303 62.232,62.888 	"/>
	<polygon fill="#124A7A" points="88.711,36.458 62.344,62.888 88.711,89.303 	"/>
	<polygon fill="#1F3057" points="35.868,36.458 62.298,62.881 88.711,36.458 	"/>
	<polygon fill="#6EE0F2" points="115.141,115.725 88.711,142.145 141.554,142.145 	"/>
	<polygon fill="#1CA3C9" points="115.074,115.732 88.711,89.303 88.711,142.145 	"/>
	<polygon fill="#6ECCF5" points="115.189,115.732 141.554,89.303 141.554,142.145 	"/>
	<polygon fill="#00A3DB" points="115.141,115.725 88.711,89.303 141.554,89.303 	"/>
	<polygon fill="#124A7A" points="194.389,89.303 247.232,89.303 220.808,62.881 	"/>
	<polygon fill="#1F3057" points="247.232,36.461 220.864,62.888 247.232,89.303 	"/>
	<polygon fill="#173D7D" points="194.389,36.459 194.389,89.303 220.76,62.888 	"/>
	<polygon fill="#122142" points="194.389,36.459 220.808,62.881 247.232,36.461 	"/>
	<polygon fill="#6ECCF5" points="167.964,115.725 194.396,142.145 141.554,142.145 	"/>
	<polygon fill="#1CA3C9" points="168.027,115.732 194.396,89.303 194.396,142.145 	"/>
	<polygon fill="#B5E3F7" points="167.92,115.732 141.554,89.303 141.554,142.145 	"/>
	<polygon fill="#00ABE3" points="167.964,115.725 194.396,89.303 141.554,89.303 	"/>
	<polygon fill="#124A7A" points="35.868,194.983 62.298,221.405 88.711,194.983 	"/>
	<polygon fill="#1F3057" points="35.868,247.827 62.232,221.396 35.868,194.983 	"/>
	<polygon fill="#173D7D" points="62.344,221.396 88.711,247.827 88.711,194.983 	"/>
	<polygon fill="#122142" points="35.868,247.827 88.711,247.827 62.298,221.405 	"/>
	<polygon fill="#9ED9E8" points="115.141,168.562 88.711,142.142 141.554,142.145 	"/>
	<polygon fill="#1CA3C9" points="115.074,168.552 88.711,194.983 88.711,142.142 	"/>
	<polygon fill="#C7D4EB" points="115.189,168.552 141.554,194.983 141.554,142.145 	"/>
	<polygon fill="#63B5E0" points="115.141,168.562 88.711,194.983 141.554,194.983 	"/>
	<polygon fill="#173D7D" points="194.389,194.983 220.808,221.405 247.232,194.983 	"/>
	<polygon fill="#122142" points="220.864,221.396 247.232,247.827 247.232,194.983 	"/>
	<polygon fill="#124A7A" points="194.389,247.827 220.76,221.396 194.389,194.983 	"/>
	<polygon fill="#1F3057" points="194.389,247.827 247.232,247.827 220.808,221.405 	"/>
	<polygon fill="#9CD9F7" points="167.964,168.562 194.396,142.145 141.554,142.145 	"/>
	<polygon fill="#1CA3C9" points="168.027,168.552 194.396,194.983 194.396,142.145 	"/>
	<polygon fill="#8FCCF0" points="167.92,168.552 141.554,194.983 141.554,142.145 	"/>
	<polygon fill="#0075B0" points="167.964,168.562 194.396,194.983 141.554,194.983 	"/>
	<polygon fill="#5C99BD" points="115.122,62.881 141.554,89.303 88.711,89.303 	"/>
	<polygon fill="#404D9E" points="88.711,36.458 88.711,89.303 115.074,62.888 	"/>
	<polygon fill="#2657A1" points="35.868,89.303 62.298,115.723 88.711,89.303 	"/>
	<polygon fill="#0075B0" points="62.344,115.713 88.711,142.145 88.711,89.303 	"/>
	<polygon fill="#2657A1" points="220.813,115.713 194.396,142.145 194.396,89.303 	"/>
	<polygon fill="#404D9E" points="194.389,89.303 220.808,115.669 247.232,89.303 	"/>
	<polygon fill="#0075B0" points="194.389,36.459 167.977,62.888 194.389,89.303 	"/>
	<polygon fill="#1CA3C9" points="167.979,62.937 141.554,89.303 194.396,89.303 	"/>
	<polygon fill="#0075B0" points="88.711,247.77 115.135,221.338 88.711,194.926 	"/>
	<polygon fill="#1CA3C9" points="115.122,221.287 141.554,194.926 88.711,194.926 	"/>
	<polygon fill="#2657A1" points="62.292,168.571 88.711,142.145 88.711,194.983 	"/>
	<polygon fill="#404D9E" points="35.868,194.983 88.711,194.983 62.298,168.619 	"/>
	<polygon fill="#2657A1" points="194.389,194.926 247.232,194.926 220.808,168.508 	"/>
	<polygon fill="#0075B0" points="220.76,168.514 194.396,142.087 194.396,194.926 	"/>
	<polygon fill="#5C99BD" points="167.979,221.345 141.554,194.926 194.396,194.926 	"/>
	<polygon fill="#404D9E" points="168.027,221.338 194.396,247.77 194.396,194.926 	"/>
</g>
</svg>
