<?xml version="1.0" encoding="UTF-8"?>
<svg width="30px" height="30px" viewBox="0 0 30 30" version="1.1" xmlns="http://www.w3.org/2000/svg" xmlns:xlink="http://www.w3.org/1999/xlink">
    <!-- Generator: Sketch 49.3 (51167) - http://www.bohemiancoding.com/sketch -->
    <title>error Mac</title>
    <desc>Created with Sketch.</desc>
    <defs></defs>
    <g id="error-Mac" stroke="none" stroke-width="1" fill="none" fill-rule="evenodd">
        <g id="NUXEO-X" transform="translate(3.000000, 3.000000)" fill="#383F46" fill-rule="nonzero">
            <path d="M17.1292146,12.2527801 C14.7678752,12.9060715 12.9076201,14.7657219 12.2534745,17.1267064 L12,16.8732319 L4.87643448,24 L0,24 L0,19.1235655 L7.12676808,12 L0,4.87323192 L0,0 L4.87643448,0 L12,7.12356552 L19.1267681,0 L24,0 L24,4.87323192 L16.8764345,12 L17.1292146,12.2527801 Z M24,23.8989827 L24,24 L23.8989827,24 C23.9329957,23.96667 23.96667,23.9329957 24,23.8989827 Z" id="Combined-Shape"></path>
        </g>
        <g id="error_state" transform="translate(16.000000, 16.000000)" fill="#CD2800" fill-rule="nonzero">
            <path d="M7.93875,3 L6,4.93875 L4.06125,3 L3,4.06125 L4.93875,6 L3,7.93875 L4.06125,9 L6,7.06125 L7.93875,9 L9,7.93875 L7.06125,6 L9,4.06125 L7.93875,3 Z M6,12 C2.6925,12 0,9.3075 0,6 C0,2.6925 2.6925,0 6,0 C9.3075,0 12,2.6925 12,6 C12,9.3075 9.3075,12 6,12 Z" id="Shape"></path>
        </g>
    </g>
</svg>