<?xml version="1.0" encoding="utf-8"?>
<!-- Generator: Adobe Illustrator 16.0.0, SVG Export Plug-In . SVG Version: 6.00 Build 0)  -->
<!DOCTYPE svg PUBLIC "-//W3C//DTD SVG 1.1//EN" "http://www.w3.org/Graphics/SVG/1.1/DTD/svg11.dtd">
<svg version="1.1" id="Calque_1" xmlns="http://www.w3.org/2000/svg" xmlns:xlink="http://www.w3.org/1999/xlink" x="0px" y="0px"
	 width="152px" height="129.333px" viewBox="0 0 152 129.333" enable-background="new 0 0 152 129.333" xml:space="preserve">
<g>
	<path fill="#31AC7F" d="M34.741,48.626L46.58,53.71c1.461-3.269,3.529-6.187,5.978-8.733l-8.674-9.644
		C40.066,39.135,36.939,43.626,34.741,48.626z"/>
	<path fill="#31AC7F" d="M74.483,35.543c8.42,0,16.046,3.101,21.575,8.641l-12.9,12.573h34.796V22.668l-12.772,12.754
		c-7.851-7.864-18.702-12.754-30.687-12.754c-8.596,0-16.598,2.519-23.341,6.832l8.821,9.806
		C64.299,36.948,69.215,35.543,74.483,35.543z"/>
	<path fill="#2B4D99" d="M114.439,83.564l-11.841-5.087c-1.459,3.27-3.528,6.188-5.977,8.734l8.675,9.643
		C109.113,93.054,112.24,88.562,114.439,83.564z"/>
	<path fill="#2B4D99" d="M74.696,96.645c-8.421,0-16.046-3.101-21.575-8.641l12.9-12.572H31.225v34.089l12.772-12.755
		c7.851,7.866,18.702,12.755,30.687,12.755c8.596,0,16.597-2.519,23.342-6.832l-8.821-9.808
		C84.88,95.241,79.963,96.645,74.696,96.645z"/>
</g>
</svg>
