<?xml version="1.0" encoding="utf-8"?>
<!-- Generator: Adobe Illustrator 16.0.4, SVG Export Plug-In . SVG Version: 6.00 Build 0)  -->
<!DOCTYPE svg PUBLIC "-//W3C//DTD SVG 1.1//EN" "http://www.w3.org/Graphics/SVG/1.1/DTD/svg11.dtd">
<svg version="1.1" id="Calque_1" xmlns="http://www.w3.org/2000/svg" xmlns:xlink="http://www.w3.org/1999/xlink" x="0px" y="0px"
	 width="325.332px" height="129.333px" viewBox="0 0 325.332 129.333" enable-background="new 0 0 325.332 129.333"
	 xml:space="preserve">
<g>
	<polygon fill="#173D7D" points="130.095,48.915 146.323,48.915 138.212,40.801 	"/>
	<polygon fill="#122142" points="130.095,32.686 130.095,48.915 138.192,40.803 	"/>
	<polygon fill="#124A7A" points="146.323,32.686 138.226,40.803 146.323,48.915 	"/>
	<polygon fill="#1F3057" points="130.095,32.686 138.212,40.801 146.323,32.686 	"/>
	<polygon fill="#6EE0F2" points="154.44,57.029 146.323,65.143 162.552,65.143 	"/>
	<polygon fill="#1CA3C9" points="154.42,57.032 146.323,48.915 146.323,65.143 	"/>
	<polygon fill="#6ECCF5" points="154.455,57.032 162.552,48.915 162.552,65.143 	"/>
	<polygon fill="#00A3DB" points="154.44,57.029 146.323,48.915 162.552,48.915 	"/>
	<polygon fill="#124A7A" points="178.778,48.915 195.006,48.915 186.891,40.801 	"/>
	<polygon fill="#1F3057" points="195.006,32.687 186.908,40.803 195.006,48.915 	"/>
	<polygon fill="#173D7D" points="178.778,32.687 178.778,48.915 186.876,40.803 	"/>
	<polygon fill="#122142" points="178.778,32.687 186.891,40.801 195.006,32.687 	"/>
	<polygon fill="#6ECCF5" points="170.662,57.029 178.78,65.143 162.552,65.143 	"/>
	<polygon fill="#1CA3C9" points="170.682,57.032 178.78,48.915 178.78,65.143 	"/>
	<polygon fill="#B5E3F7" points="170.649,57.032 162.552,48.915 162.552,65.143 	"/>
	<polygon fill="#00ABE3" points="170.662,57.029 178.78,48.915 162.552,48.915 	"/>
	<polygon fill="#124A7A" points="130.095,81.37 138.212,89.485 146.323,81.37 	"/>
	<polygon fill="#1F3057" points="130.095,97.598 138.192,89.481 130.095,81.37 	"/>
	<polygon fill="#173D7D" points="138.226,89.481 146.323,97.598 146.323,81.37 	"/>
	<polygon fill="#122142" points="130.095,97.598 146.323,97.598 138.212,89.485 	"/>
	<polygon fill="#9ED9E8" points="154.44,73.256 146.323,65.142 162.552,65.143 	"/>
	<polygon fill="#1CA3C9" points="154.42,73.252 146.323,81.37 146.323,65.142 	"/>
	<polygon fill="#C7D4EB" points="154.455,73.252 162.552,81.37 162.552,65.143 	"/>
	<polygon fill="#63B5E0" points="154.44,73.256 146.323,81.37 162.552,81.37 	"/>
	<polygon fill="#173D7D" points="178.778,81.37 186.891,89.485 195.006,81.37 	"/>
	<polygon fill="#122142" points="186.908,89.481 195.006,97.598 195.006,81.37 	"/>
	<polygon fill="#124A7A" points="178.778,97.598 186.876,89.481 178.778,81.37 	"/>
	<polygon fill="#1F3057" points="178.778,97.598 195.006,97.598 186.891,89.485 	"/>
	<polygon fill="#9CD9F7" points="170.662,73.256 178.78,65.143 162.552,65.143 	"/>
	<polygon fill="#1CA3C9" points="170.682,73.252 178.78,81.37 178.78,65.143 	"/>
	<polygon fill="#8FCCF0" points="170.649,73.252 162.552,81.37 162.552,65.143 	"/>
	<polygon fill="#0075B0" points="170.662,73.256 178.78,81.37 162.552,81.37 	"/>
	<polygon fill="#5C99BD" points="154.434,40.801 162.552,48.915 146.323,48.915 	"/>
	<polygon fill="#404D9E" points="146.323,32.686 146.323,48.915 154.42,40.803 	"/>
	<polygon fill="#2657A1" points="130.095,48.915 138.212,57.029 146.323,48.915 	"/>
	<polygon fill="#0075B0" points="138.226,57.026 146.323,65.143 146.323,48.915 	"/>
	<polygon fill="#2657A1" points="186.893,57.026 178.78,65.143 178.78,48.915 	"/>
	<polygon fill="#404D9E" points="178.778,48.915 186.891,57.012 195.006,48.915 	"/>
	<polygon fill="#0075B0" points="178.778,32.687 170.666,40.803 178.778,48.915 	"/>
	<polygon fill="#1CA3C9" points="170.667,40.818 162.552,48.915 178.78,48.915 	"/>
	<polygon fill="#0075B0" points="146.323,97.581 154.438,89.463 146.323,81.352 	"/>
	<polygon fill="#1CA3C9" points="154.434,89.448 162.552,81.352 146.323,81.352 	"/>
	<polygon fill="#2657A1" points="138.21,73.258 146.323,65.143 146.323,81.37 	"/>
	<polygon fill="#404D9E" points="130.095,81.37 146.323,81.37 138.212,73.274 	"/>
	<polygon fill="#2657A1" points="178.778,81.352 195.006,81.352 186.891,73.239 	"/>
	<polygon fill="#0075B0" points="186.876,73.241 178.78,65.125 178.78,81.352 	"/>
	<polygon fill="#5C99BD" points="170.667,89.465 162.552,81.352 178.78,81.352 	"/>
	<polygon fill="#404D9E" points="170.682,89.463 178.78,97.581 178.78,81.352 	"/>
</g>
</svg>
