<?xml version="1.0" encoding="UTF-8"?>
<svg width="30px" height="30px" viewBox="0 0 30 30" version="1.1" xmlns="http://www.w3.org/2000/svg" xmlns:xlink="http://www.w3.org/1999/xlink">
    <!-- Generator: Sketch 49.3 (51167) - http://www.bohemiancoding.com/sketch -->
    <title>update Mac</title>
    <desc>Created with Sketch.</desc>
    <defs></defs>
    <g id="update-Mac" stroke="none" stroke-width="1" fill="none" fill-rule="evenodd">
        <g id="update_state" transform="translate(16.000000, 16.000000)" fill="#FF9E00" fill-rule="nonzero">
            <path d="M6,0 C2.69169231,0 0,2.69169231 0,6 C0,9.30830769 2.69169231,12 6,12 C9.30830769,12 12,9.30830769 12,6 C12,2.69169231 9.30830769,0 6,0 Z M10.2,3.14215385 C10.2,3.14215385 9.66092308,5.22461538 9.65353846,5.24123077 C9.56215385,5.47476923 9.30738462,5.58276923 9.11723077,5.52369231 L7.06984615,5.00307692 C6.82246154,4.94030769 6.67384615,4.68830769 6.73753846,4.44184615 C6.79938462,4.19446154 7.05046154,4.044 7.29784615,4.10953846 L8.40738462,4.392 C7.58030769,3.06646154 6.06369231,2.58923077 4.72892308,2.97969231 C2.98984615,3.48553846 1.99384615,5.304 2.50061538,7.03753846 C2.99907692,8.75538462 4.8,9.77907692 6.56030769,9.26769231 C6.804,9.19384615 7.06153846,9.336 7.13169231,9.58153846 C7.20369231,9.82615385 7.06338462,10.0827692 6.81784615,10.1529231 C4.59969231,10.8 2.26430769,9.53353846 1.61261538,7.29692308 C0.963692308,5.06953846 2.24215385,2.73969231 4.47046154,2.09261538 C6.12369231,1.60984615 7.99569231,2.15630769 9.09046154,3.75692308 L9.30553846,2.91507692 C9.36738462,2.66676923 9.61938462,2.51815385 9.86676923,2.58276923 C10.1141538,2.64461538 10.2627692,2.89569231 10.2,3.14215385 Z" id="Shape"></path>
        </g>
        <g id="NUXEO-X" transform="translate(3.000000, 3.000000)" fill="#383F46" fill-rule="nonzero">
            <polygon id="Combined-Shape" points="0 4.87323192 7.12676808 12 0 19.1235655 0 24 4.87643448 24 24 4.87323192 24 0 19.1267681 0 12 7.12356552 4.87643448 0 0 0"></polygon>
        </g>
    </g>
</svg>