<svg xmlns="http://www.w3.org/2000/svg" height="20px" viewBox="0 -960 960 960" width="20px" fill="#000000"><path d="M213-213.21q-21-21.21-21-51T213.21-315q21.21-21 51-21T315-314.79q21 21.21 21 51T314.79-213q-21.21 21-51 21T213-213.21Zm216 0q-21-21.21-21-51T429.21-315q21.21-21 51-21T531-314.79q21 21.21 21 51T530.79-213q-21.21 21-51 21T429-213.21Zm216 0q-21-21.21-21-51T645.21-315q21.21-21 51-21T747-314.79q21 21.21 21 51T746.79-213q-21.21 21-51 21T645-213.21Zm-432-216q-21-21.21-21-51T213.21-531q21.21-21 51-21T315-530.79q21 21.21 21 51T314.79-429q-21.21 21-51 21T213-429.21Zm216 0q-21-21.21-21-51T429.21-531q21.21-21 51-21T531-530.79q21 21.21 21 51T530.79-429q-21.21 21-51 21T429-429.21Zm216 0q-21-21.21-21-51T645.21-531q21.21-21 51-21T747-530.79q21 21.21 21 51T746.79-429q-21.21 21-51 21T645-429.21Zm-432-216q-21-21.21-21-51T213.21-747q21.21-21 51-21T315-746.79q21 21.21 21 51T314.79-645q-21.21 21-51 21T213-645.21Zm216 0q-21-21.21-21-51T429.21-747q21.21-21 51-21T531-746.79q21 21.21 21 51T530.79-645q-21.21 21-51 21T429-645.21Zm216 0q-21-21.21-21-51T645.21-747q21.21-21 51-21T747-746.79q21 21.21 21 51T746.79-645q-21.21 21-51 21T645-645.21Z"/></svg>
