<?xml version="1.0" encoding="UTF-8"?>
<svg width="30px" height="30px" viewBox="0 0 30 30" version="1.1" xmlns="http://www.w3.org/2000/svg" xmlns:xlink="http://www.w3.org/1999/xlink">
    <!-- Generator: Sketch 49.3 (51167) - http://www.bohemiancoding.com/sketch -->
    <title>conflict Mac</title>
    <desc>Created with Sketch.</desc>
    <defs></defs>
    <g id="conflict-Mac" stroke="none" stroke-width="1" fill="none" fill-rule="evenodd">
        <g id="NUXEO-X" transform="translate(3.000000, 3.000000)" fill="#383F46" fill-rule="nonzero">
            <path d="M18.7349797,13.8585452 L15.2979791,20.171211 L12,16.8732319 L4.87643448,24 L0,24 L0,19.1235655 L7.12676808,12 L0,4.87323192 L0,0 L4.87643448,0 L12,7.12356552 L19.1267681,0 L24,0 L24,4.87323192 L16.8764345,12 L18.7349797,13.8585452 Z" id="Combined-Shape"></path>
        </g>
        <g id="conflict_state" transform="translate(17.000000, 17.200001)" fill="#FFB612" fill-rule="nonzero">
            <path d="M11.9507566,10.1974803 L6.41279805,0.210965132 C6.25588923,-0.0703217107 5.74362806,-0.0703217107 5.58671923,0.210965132 L0.0487606653,10.1974803 C-0.104456188,10.4762705 0.122600113,10.8 0.462261572,10.8 L11.5381787,10.8 C11.8778402,10.8 12.1048965,10.4762705 11.9507566,10.1974803 Z M6.00022014,8.95064535 C5.74547405,8.95064535 5.53872359,8.74351763 5.53872359,8.48830668 C5.53872359,8.23217107 5.74547405,8.02596802 6.00022014,8.02596802 C6.25496624,8.02596802 6.46171669,8.23217107 6.46171669,8.48830668 C6.46171669,8.74351763 6.25496624,8.95064535 6.00022014,8.95064535 Z M6.46171669,7.1012907 C6.46171669,7.35650164 6.25496624,7.56362936 6.00022014,7.56362936 C5.74547405,7.56362936 5.53872359,7.35650164 5.53872359,7.1012907 L5.53872359,3.86492005 C5.53872359,3.60878443 5.74547405,3.40258139 6.00022014,3.40258139 C6.25496624,3.40258139 6.46171669,3.60878443 6.46171669,3.86492005 L6.46171669,7.1012907 Z" id="Shape"></path>
        </g>
    </g>
</svg>