<?xml version="1.0" encoding="UTF-8"?>
<svg width="30px" height="30px" viewBox="0 0 30 30" version="1.1" xmlns="http://www.w3.org/2000/svg" xmlns:xlink="http://www.w3.org/1999/xlink">
    <!-- Generator: Sketch 49.3 (51167) - http://www.bohemiancoding.com/sketch -->
    <title>error Win</title>
    <desc>Created with Sketch.</desc>
    <defs></defs>
    <g id="error-Win" stroke="none" stroke-width="1" fill="none" fill-rule="evenodd">
        <g id="NUXEO-X" transform="translate(3.000000, 3.000000)" fill="#FFFFFF" fill-rule="nonzero">
            <polygon id="Combined-Shape" points="0 4.87323192 7.12676808 12 0 19.1235655 0 24 4.87643448 24 24 4.87323192 24 0 19.1267681 0 12 7.12356552 4.87643448 0 0 0"></polygon>
        </g>
        <g id="error_state" transform="translate(17.000000, 16.000000)" fill="#D82229" fill-rule="nonzero">
            <path d="M7.93875,3 L6,4.93875 L4.06125,3 L3,4.06125 L4.93875,6 L3,7.93875 L4.06125,9 L6,7.06125 L7.93875,9 L9,7.93875 L7.06125,6 L9,4.06125 L7.93875,3 Z M6,12 C2.6925,12 0,9.3075 0,6 C0,2.6925 2.6925,0 6,0 C9.3075,0 12,2.6925 12,6 C12,9.3075 9.3075,12 6,12 Z" id="Shape"></path>
        </g>
    </g>
</svg>