<?xml version="1.0" encoding="UTF-8" standalone="no"?>
<!-- Generator: Adobe Illustrator 22.0.1, SVG Export Plug-In . SVG Version: 6.00 Build 0)  -->
<svg
	xmlns:dc="http://purl.org/dc/elements/1.1/"
	xmlns:cc="http://creativecommons.org/ns#"
	xmlns:rdf="http://www.w3.org/1999/02/22-rdf-syntax-ns#"
	xmlns:svg="http://www.w3.org/2000/svg"
	xmlns="http://www.w3.org/2000/svg"
	xmlns:sodipodi="http://sodipodi.sourceforge.net/DTD/sodipodi-0.dtd"
	xmlns:inkscape="http://www.inkscape.org/namespaces/inkscape"
   version="1.1"
   id="Calque_1"
   x="0px"
   y="0px"
   viewBox="0 0 128 128"
   xml:space="preserve"
   sodipodi:docname="tasks.svg"
   width="128"
   height="128"
   inkscape:version="0.92.3 (2405546, 2018-03-11)">
	<metadata
   id="metadata11">
		<rdf:RDF>
			<cc:Work
       rdf:about="">
				<dc:format>image/svg+xml</dc:format>
				<dc:type
         rdf:resource="http://purl.org/dc/dcmitype/StillImage" />
				<dc:title></dc:title>
			</cc:Work>
		</rdf:RDF>
	</metadata>
	<defs
   id="defs9" />
	<sodipodi:namedview
   pagecolor="#ffffff"
   bordercolor="#666666"
   borderopacity="1"
   objecttolerance="10"
   gridtolerance="10"
   guidetolerance="10"
   inkscape:pageopacity="0"
   inkscape:pageshadow="2"
   inkscape:window-width="3200"
   inkscape:window-height="1639"
   id="namedview7"
   showgrid="false"
   inkscape:zoom="1.8252126"
   inkscape:cx="76.547881"
   inkscape:cy="64.650002"
   inkscape:window-x="0"
   inkscape:window-y="52"
   inkscape:window-maximized="1"
   inkscape:current-layer="Calque_1" />
	<style
   type="text/css"
   id="tasks">
	.st0{fill:#0067FF;}
</style>
	<g>
		<path d="M2.707,3.293l-1.293,-1.293l-1.414,1.414l2.707,2.708l4.707,-4.708l-1.414,-1.414Z" transform="translate(8.293, 5.293)"></path>
		<path d="M2.707,3.293l-1.293,-1.293l-1.414,1.414l2.707,2.708l4.707,-4.708l-1.414,-1.414Z" transform="translate(8.293, 12.293)"></path>
		<path d="M14,0h-12c-1.103,0 -2,0.898 -2,2v16c0,1.103 0.897,2 2,2h12c1.103,0 2,-0.897 2,-2v-16c0,-1.102 -0.897,-2 -2,-2Zm-12,18v-16h12l0.001,16h-12.001Z" transform="translate(4, 2)"></path>
	</g>
</svg>
