<svg xmlns="http://www.w3.org/2000/svg" height="20px" viewBox="0 -960 960 960" width="20px" fill="#000000"><path d="M480-288q80 0 136-56t56-136q0-80-56-136t-136-56q-80 0-136 56t-56 136q0 80 56 136t136 56Zm-34-158q-14-14-14-34t14-34q14-14 34-14t34 14q14 14 14 34t-14 34q-14 14-34 14t-34-14Zm34.28 350Q401-96 331-126t-122.5-82.5Q156-261 126-330.96t-30-149.5Q96-560 126-629.5q30-69.5 82.5-122T330.96-834q69.96-30 149.5-30t149.04 30q69.5 30 122 82.5T834-629.28q30 69.73 30 149Q864-401 834-331t-82.5 122.5Q699-156 629.28-126q-69.73 30-149 30Zm-.28-72q130 0 221-91t91-221q0-130-91-221t-221-91q-130 0-221 91t-91 221q0 130 91 221t221 91Zm0-312Z"/></svg>
