<?xml version="1.0" encoding="UTF-8" standalone="no"?>
<svg
   xmlns:dc="http://purl.org/dc/elements/1.1/"
   xmlns:cc="http://creativecommons.org/ns#"
   xmlns:rdf="http://www.w3.org/1999/02/22-rdf-syntax-ns#"
   xmlns:svg="http://www.w3.org/2000/svg"
   xmlns="http://www.w3.org/2000/svg"
   xmlns:xlink="http://www.w3.org/1999/xlink"
   xmlns:sodipodi="http://sodipodi.sourceforge.net/DTD/sodipodi-0.dtd"
   xmlns:inkscape="http://www.inkscape.org/namespaces/inkscape"
   width="30"
   height="30"
   viewBox="0 0 30 30"
   version="1.1"
   id="svg20"
   sodipodi:docname="xmas_light.svg"
   inkscape:version="1.0.1 (c497b03c, 2020-09-10)">
  <metadata
     id="metadata26">
    <rdf:RDF>
      <cc:Work
         rdf:about="">
        <dc:format>image/svg+xml</dc:format>
        <dc:type
           rdf:resource="http://purl.org/dc/dcmitype/StillImage" />
        <dc:title></dc:title>
      </cc:Work>
    </rdf:RDF>
  </metadata>
  <defs
     id="defs24">
    <linearGradient
       inkscape:collect="always"
       xlink:href="#linearGradient2210"
       id="linearGradient2206"
       x1="191.17137"
       y1="408.38992"
       x2="285.83481"
       y2="539.54895"
       gradientUnits="userSpaceOnUse"
       gradientTransform="translate(-161.6244,-367.6955)" />
    <linearGradient
       id="linearGradient2210"
       inkscape:collect="always">
      <stop
         id="stop2212"
         offset="0"
         style="stop-color:#ff1010;stop-opacity:1" />
      <stop
         id="stop2214"
         offset="1"
         style="stop-color:#000000;stop-opacity:1" />
    </linearGradient>
    <linearGradient
       inkscape:collect="always"
       xlink:href="#linearGradient2210"
       id="linearGradient2208"
       x1="191.17137"
       y1="408.38992"
       x2="325.83481"
       y2="623.12036"
       gradientUnits="userSpaceOnUse"
       gradientTransform="translate(-161.6244,-367.6955)" />
    <linearGradient
       inkscape:collect="always"
       xlink:href="#linearGradient2210"
       id="linearGradient4551"
       gradientUnits="userSpaceOnUse"
       x1="191.17137"
       y1="408.38992"
       x2="368.61655"
       y2="664.58374"
       gradientTransform="translate(-161.6244,-367.6955)" />
  </defs>
  <sodipodi:namedview
     pagecolor="#ffffff"
     bordercolor="#666666"
     borderopacity="1"
     objecttolerance="10"
     gridtolerance="10"
     guidetolerance="10"
     inkscape:pageopacity="0"
     inkscape:pageshadow="2"
     inkscape:window-width="1280"
     inkscape:window-height="755"
     id="namedview22"
     showgrid="false"
     inkscape:showpageshadow="false"
     inkscape:zoom="7.5024142"
     inkscape:cx="-14.103286"
     inkscape:cy="-0.13071611"
     inkscape:window-x="0"
     inkscape:window-y="23"
     inkscape:window-maximized="1"
     inkscape:current-layer="layer3"
     inkscape:document-rotation="0" />
  <style
     type="text/css"
     id="style2">
	.st0{fill:#0067FF;}
</style>
  <g
     inkscape:groupmode="layer"
     id="layer3"
     inkscape:label="x"
     style="display:inline">
    <polygon
       class="st0"
       points="95,65.1 123.5,36.7 123.5,17.2 104,17.2 75.6,45.7 47.1,17.2 27.6,17.2 27.6,36.7 56.1,65.1 27.6,93.6 27.6,113.1 47.1,113.1 75.6,84.6 104,113.1 123.5,113.1 123.5,93.6 "
       id="polygon4"
       transform="matrix(0.27529212,0,0,0.27529212,-6.5980626,-2.1355394)"
       style="fill:#ffffff;stroke:none;stroke-width:13.72915273;fill-opacity:1" />
  </g>
  <g
     inkscape:groupmode="layer"
     id="layer2"
     inkscape:label="hat"
     style="display:inline"
     sodipodi:insensitive="true">
    <g
       inkscape:label="Calque 1"
       id="layer1"
       transform="matrix(0.12517135,0,0,0.12517135,13.191767,-1.7284636)">
      <path
         style="fill:#d0d0d0;fill-opacity:1;fill-rule:nonzero;stroke:none;stroke-width:10;stroke-linecap:butt;stroke-miterlimit:4;stroke-dasharray:none;stroke-dashoffset:0;stroke-opacity:1"
         d="m 112.875,134.84375 -1.15625,3.75 L 110.25,135 l -0.0312,0.75 -0.375,-0.875 -0.0625,2.875 -1.53125,-2.34375 0.15625,0.875 -0.5,-0.71875 0.6875,3.84375 -3,-2.65625 1.40625,3 -3.03125,-1.8125 2.25,3.03125 -3.96875,-1.5 2.84375,2.65625 -3.84375,-0.71875 3.75,2.375 -3.09375,0.1875 -1.1875,0.0625 -0.25,0.0312 3.53125,1.125 -3.3125,0.75 0.53125,0.0937 -0.71875,0.15625 4.53125,0.625 -3.8125,1.9375 3.59375,-0.34375 -2.75,2.09375 3.03125,-0.84375 -2.25,2.5 3.53125,-1.6875 -2,3.3125 3.65625,-2.65625 -1.125,4.09375 0.125,-0.15625 -0.0625,0.21875 2.34375,-2.78125 -0.25,3.375 v 0.0312 0.15625 l 2.15625,-4.0625 0.875,4.375 0.8125,-3.5625 1.375,3.25 0.0625,-2.90625 1.59375,2.375 -0.5625,-3.34375 2.5625,2.625 -1.5625,-4.03125 4,2.4375 -0.28125,-0.40625 0.1875,0.125 -2.03125,-2.71875 3.5,1.28125 0.0937,0.0312 -3.25,-3.03125 4.59375,0.5625 -3.46875,-1.875 4,-0.21875 L 120,145.75 l 3.4375,-0.8125 -3.375,-0.5 3.125,-1.3125 -4.21875,0.125 3.4375,-2.5625 -1.09375,0.28125 0.78125,-0.59375 -2.9375,0.84375 2.15625,-2.34375 -0.5625,0.28125 0.28125,-0.34375 -3.71875,1.8125 1.875,-3.6875 -2.8125,2.34375 1,-3.53125 -2.71875,3.3125 0.3125,-4.03125 -1.6875,3.125 z"
         id="path2248" />
      <path
         style="fill:url(#linearGradient2206);fill-opacity:1;fill-rule:evenodd;stroke:none;stroke-width:1px;stroke-linecap:butt;stroke-linejoin:miter;stroke-opacity:1"
         d="m 32.029954,39.919197 c -1.21489,-3.06991 -6.33343,5.70336 -8.85525,9.37148 -2.88165,4.19151 -5.88051,8.21541 -9.08482,12.16169 -3.35777,4.13528 -9.3052599,6.01753 -12.1428599,9.64286 -1.16305002,1.48592 -0.54008,4.51799 0.42516,6.42289 1.90845,3.76633 4.68642,6.9222 7.374,10.1504 2.5675599,3.08405 5.1635999,6.10329 8.2750199,8.66724 4.10307,3.38112 7.90449,7.112053 12.47345,9.904733 5.3921,3.29581 10.5904,6.89312 16.24802,9.7472 4.07547,2.05593 8.10856,4.11861 12.43074,5.64366 7.44442,2.62671 14.91141,5.40749 22.60414,7.04559 5.0471,1.07473 10.22636,1.90264 15.39362,2.06116 2.06678,0.0634 5.998746,1.93771 5.825606,0.25254 -0.96727,-9.41471 -4.980296,-22.75355 -8.192626,-33.823983 -1.88279,-6.48852 -3.03212,-13.5105 -5.8865,-19.6496 -1.26783,-2.72679 -2.91036,-5.80906 -5.18491,-7.49325 -4.36612,-3.23289 -9.8359,-4.71306 -15.55585,-6.63081 -8.94495,-2.999 -18.18134,-9.25147 -25.85587,-14.89792 -3.59053,-2.6417 -8.91475,-5.09808 -10.29107,-8.57588 z"
         id="path1321"
         sodipodi:nodetypes="cssssssssssssssssss"
         transform="matrix(0.77328,0,0,0.77328,15.63903,-3.39033)" />
      <path
         style="fill:#d0d0d0;fill-opacity:1;fill-rule:nonzero;stroke:none;stroke-width:10;stroke-linecap:butt;stroke-miterlimit:4;stroke-dasharray:none;stroke-dashoffset:0;stroke-opacity:1"
         d="m 14.875,43.40625 c -0.453856,0.788715 -0.780287,4.847725 -1.329629,3.185811 -0.587221,-1.859914 -1.051754,-2.923828 -1.376181,-3.030829 -0.197834,0.710403 0.270011,4.443491 -0.896383,1.489919 C 10.559841,43.621514 10.647244,44.684177 10.425852,44.681703 10.399542,45.735284 11.7404,49.47901 10.0286,47.2161 10.04653,45.962515 8.8137614,46.39507 8.3512469,45.652135 9.8107095,47.297619 8.2666139,49.088345 7.9718292,46.443353 8.120906,45.372311 7.1504808,47.798744 6.9271457,46.847317 8.2954964,48.468284 6.1202545,49.98477 5.9967465,47.340459 5.5077117,45.657634 5.4030192,46.666191 5.1450561,46.469211 5.334771,48.95079 4.9405977,49.156262 3.897799,46.833268 3.5791457,46.800629 3.2516077,46.804181 3.7444594,48.98954 c 0.9198157,2.924635 -0.9697858,0.281928 -1.9878885,-0.633756 -1.4260384,-1.466006 1.9195401,3.764165 0.150299,2.189745 -1.92700497,-1.538509 -2.41596878,-1.571596 -0.8223893,0.57544 1.8565244,2.224066 -1.40417793,0.04722 -2.4421894,-0.218071 -1.1131005,-0.310887 3.0363519,2.761679 1.68143514,2.485668 -1.60917544,-0.346931 -4.17241814,-1.117966 -1.47097684,0.451267 2.425841,1.27919 1.47587638,1.590994 -0.7871221,1.526529 -2.7889412,-0.109509 0.2379463,0.666274 1.30362675,1.114831 0.65069159,0.499602 -2.98084405,0.806961 -2.71300415,1.206307 0.9219092,0.39879 4.9043321,0.213573 3.46945149,1.062085 -2.29879449,-1.38852 0.52647413,0.837038 -2.11011609,1.216865 -1.8692561,0.397099 3.0944888,0.799784 0.2634692,2.032259 0.1549147,-0.393271 3.5271534,-0.18592 0.87739169,0.779997 C -3.7649585,62.82124 -1.54148,62.898204 -1.21875,63.90625 c 2.9267631,-0.31452 0.144754,0.804116 -1.375,0.96875 -0.3888878,0.382156 2.09865501,0.562259 3.52031675,0.834908 0.88263825,0.327359 -3.11623175,1.761877 -2.78712735,2.074622 1.63879321,-0.182127 4.1521611,-0.746095 1.58361452,0.908705 -2.88541512,2.064356 2.13544808,-0.583943 1.35528948,0.475477 -1.34412164,1.570222 -2.2821826,2.79689 0.165603,1.158912 2.0502164,-1.239713 0.6955074,0.04004 0.2694438,1.290425 -1.65060611,2.568509 0.7841026,0.06676 1.8303598,-0.711799 1.3538287,1.067236 -1.549091,1.389698 -1.46875,1.65625 2.6733346,-1.016007 0.4740018,3.147777 1.6973961,1.393055 1.3696549,-2.212089 2.2690062,0.312808 -0.055235,0.701101 -2.58023207,1.10564 1.9355516,0.08734 1.6330099,0.511753 1.8517521,-0.91984 -3.3090487,2.599632 -1.1087303,1.652212 2.7100198,-1.283217 1.4573259,0.186927 0.1863234,1.669792 -0.3700977,0.825221 3.8067081,-2.561404 2.6478161,-0.785995 -0.763784,1.448164 -2.2658141,3.804106 -0.038266,1.574008 1.6996021,-1.761493 2.2471898,-1.67185 1.3522442,0.735758 -0.8466663,2.548301 -0.2077308,1.909807 0.9766011,0.08781 1.3617425,-2.522707 0.3195337,1.721802 0.5525909,1.52301 -0.5226993,2.294611 0.8857846,-0.946861 2.4375816,0.880918 -0.550645,0.679369 -2.6167458,0.787105 -2.7500816,1.212832 0.9203496,0.396127 4.9077856,0.219471 3.4662836,1.056677 -1.071871,0.704324 -4.2651792,2.102553 -1.223569,1.461395 2.96992,-0.768485 0.188879,0.974225 -0.772984,1.922579 1.426702,-0.422912 3.734556,-1.406672 1.559247,0.641278 -2.082576,2.177436 1.091923,-0.07475 2.127461,-0.524641 0.484293,0.0799 -2.515605,4.13379 -1.011876,2.838823 0.928816,-0.52294 3.451811,-3.60752 2.41908,-0.978509 -0.191173,1.140502 -1.38972,4.451662 0.09612,1.977875 1.369214,-2.432007 1.48929,-1.405611 1.17583,0.82108 -0.319871,2.439869 0.946537,-1.407157 1.398685,-2.071993 0.831678,-2.536892 0.774714,1.613632 1.144047,2.556083 0.256958,2.050058 0.604718,-2.071684 0.902929,-2.825647 0.464262,0.922505 1.446185,4.943325 1.277408,2.07696 -0.05165,-2.551853 0.247236,-0.882927 1.127426,0.189094 -0.817411,2.164324 2.808681,-0.726301 2.329759,0.465158 -1.343307,1.571706 -2.281529,2.798082 0.157968,1.144992 2.436,-1.807292 0.231575,1.138311 -0.243486,2.312636 -0.05557,0.566032 2.227804,-1.762013 3.100925,-2.34509 -0.276507,1.343265 -0.987374,3.641944 -0.963935,4.322082 0.631855,-0.499742 2.40894,-4.202394 2.032035,-1.822447 -0.156984,1.769271 -0.305705,3.624521 0.65656,0.938594 0.748794,-1.8965 1.437359,-3.34459 1.540631,-0.435181 0.57303,2.654478 -0.227334,2.024747 1.698111,1.191991 1.667476,0.851543 -1.954931,2.751497 1.247875,1.396827 2.554989,-1.26462 -2.001347,2.71364 -0.620949,2.05687 1.436924,-0.78409 3.690669,-2.401689 1.885247,0.1228 -1.672665,2.5727 -0.110668,1.15821 1.306245,-0.0774 1.932147,-2.148611 0.345752,1.39442 0.275646,2.48468 -0.724361,2.31795 1.226378,-1.1791 1.857908,-1.81304 0.298198,0.18491 -0.499817,4.17016 0.08942,3.08919 0.592601,-0.74101 1.609489,-4.66118 1.878958,-2.98098 0.287248,0.83522 0.521224,5.15705 0.857785,2.76464 0.28597,-1.79004 0.565471,-3.659 1.227215,-0.86359 0.03889,0.75625 0.650403,2.10156 0.858151,0.0654 2.801695,-0.20114 -1.968615,2.78191 0.62747,1.59134 2.804937,-1.32097 0.709285,0.7256 -0.234311,1.98051 0.546335,0.0439 4.037291,-2.81313 2.662348,-0.75705 -1.012393,1.77416 -1.80967,3.28063 0.309291,1.15812 1.880828,-2.07624 1.731505,-0.87342 1.060588,1.17186 -0.948396,2.75888 0.194857,1.05509 1.207156,-0.377 1.125642,-1.8281 0.199911,1.94748 0.353057,2.7918 0.539625,-0.86454 1.309717,-2.76894 1.9375,-4.03125 0.280467,1.20393 0.541648,3.92045 0.8334,4.23925 0.07155,-1.55424 0.920089,-4.16655 1.492181,-1.25976 0.192048,1.78675 0.300606,-0.1673 1.651402,0.0631 -0.315104,1.66351 -1.901353,2.55894 0.727244,1.01957 2.39723,-1.77947 0.117267,1.23393 -0.306147,2.34487 0.10401,0.36443 2.266002,-1.81918 3.16442,-2.43832 -0.301705,1.39208 -0.856045,3.31968 -1,4.375 0.761144,-0.73439 2.563405,-4.33754 2.045595,-1.5478 -0.384555,2.77974 0.112607,2.10091 0.992046,-0.0774 0.884888,-2.88834 1.079929,-0.67382 1.334347,1.10148 0.255011,3.13296 0.595445,-0.14189 0.910063,-1.48029 0.25088,-1.7688 1.261475,3.76093 1.390472,2.28493 0.02482,-2.11657 0.0038,-2.76955 0.776073,-1.30247 1.201631,2.94799 -0.09789,-1.94183 2.055965,-0.014 -1.414723,1.33152 -2.280362,2.00346 0.270462,0.97762 2.006499,-0.91433 -2.714693,3.24136 -0.63796,1.98707 1.71387,-1.05177 3.279599,-1.95349 1.551983,0.48061 -1.735363,2.64285 0.403252,0.52211 1.607956,-0.45026 1.765807,-1.86787 0.01744,1.91108 0.0187,2.8786 -0.499182,1.78471 1.408168,-1.61636 1.996799,-2.18179 0.101659,0.73701 -0.622207,4.71136 0.116563,2.9949 0.593534,-0.74475 1.632079,-4.8384 1.812957,-2.47775 0.284679,0.97595 0.52335,5.07903 0.864586,2.21077 0.253041,-2.46366 0.679659,-2.65835 1.31163,-0.16869 0.889459,3.1983 0.02823,-2.65237 0.758175,-1.35113 1.236071,2.53619 1.237337,1.6082 0.764776,-0.6491 -0.561528,-2.18187 2.039007,2.20686 2.129297,1.6268 -0.08463,-0.97564 -2.07179,-4.47168 -0.696043,-3.51267 1.345267,0.43714 2.551063,2.69681 3.417301,1.84685 1.713593,-1.06641 3.238592,-1.94038 1.528558,0.48678 -1.726764,2.63938 0.467583,0.44543 1.634867,-0.48251 1.728614,-1.81938 -0.01496,1.9779 0.01056,2.91347 -0.486139,1.77153 1.411705,-1.60007 2.003018,-2.15647 0.1051,0.70446 -0.625593,4.6894 0.116236,2.93225 0.58549,-0.71802 1.604953,-4.80885 1.790245,-2.41654 0.293794,0.96772 0.551348,5.05563 0.889765,2.18139 0.254881,-2.47686 0.681766,-2.59985 1.297851,-0.13364 0.867988,3.13632 0.01316,-2.77894 0.7378,-1.47991 1.22656,2.50737 1.293105,1.75179 0.79679,-0.58705 -0.561528,-2.18187 2.039007,2.20686 2.129297,1.6268 -0.08582,-0.97392 -2.069146,-4.47548 -0.69846,-3.5092 0.963423,0.54982 3.70924,2.95376 2.649955,1.37793 -1.082339,-1.528 -2.263295,-3.14111 0.253206,-1.63617 2.689633,1.48433 -0.172716,-0.95618 -0.94281,-1.91762 -1.384917,-1.3306 2.467143,0.0723 3.366843,-0.0658 0.3305,-0.32801 -4.469401,-2.16986 -1.856209,-1.99848 2.441869,0.0186 2.968129,-0.2523 0.354485,-0.9978 -2.945314,-0.59637 2.021054,-0.92388 1.696244,-1.29361 -2.007221,-0.21171 -3.721966,-0.46684 -0.92027,-1.39228 2.32187,-0.92256 -1.927069,-0.21218 -2.756835,-0.35151 0.03509,-0.49554 3.510925,-2.67919 2.492715,-2.52971 1.03797,-1.065 -2.486895,0.83427 -2.066372,-0.007 1.172864,-1.37396 1.655849,-1.72617 1.325774,-2.05206 -1.371308,0.79499 -3.327084,-1.97243 -0.641419,-1.38967 2.940237,0.1024 -0.970135,-0.79801 -1.888592,-1.26045 0.05376,-0.42195 4.765959,-0.92213 1.655312,-1.12662 -3.078179,-0.0483 -0.252706,-0.98094 1.093449,-1.69201 -0.921988,-0.21268 -4.971404,0.8169 -3.009509,-0.5413 1.417086,-1.150503 2.389332,-2.024475 1.778879,-2.065507 0.123647,-0.476049 -3.955981,1.674847 -1.401588,-0.610923 1.545111,-1.704673 0.37268,-1.154945 -1.188814,-0.20482 -2.425382,1.89897 -0.779824,-0.673329 -0.220152,-2.052957 1.222962,-2.325414 -1.957621,1.801355 -2.082853,1.248531 0.122176,-1.002833 1.555169,-4.833391 0.06253,-2.352717 -1.103141,1.693708 -2.11153,3.125701 -1.544871,0.207235 0.470534,-3.033296 -0.341342,-1.125477 -1.109082,0.612284 -0.675859,1.840867 -0.332307,-3.840662 -0.799129,-2.320388 -0.445684,0.947831 -0.783635,4.92488 -1.362139,2.138138 -0.638197,-2.278299 -0.887339,-1.973657 -1.253872,-2.354216 0.08167,2.069606 0.0054,3.511106 -1.102098,0.850048 -0.338114,-0.468416 -0.394143,0.07211 -0.586123,0.09619 1.45112,2.151728 -2.822467,2.34535 -0.562247,0.474162 1.11572,-1.290221 -0.743069,-0.07808 -1.587685,0.344995 -2.417489,1.927275 -0.875436,-0.571176 -0.277372,-2.014496 1.174985,-2.206257 -1.446275,1.027555 -2.128878,1.483246 0.05772,-0.855693 1.57832,-4.90312 0.289489,-2.820912 -0.816776,0.995214 -2.35888,4.024354 -1.745859,1.010209 0.303715,-2.414645 0.143223,-3.03532 -0.84391,-0.461357 -0.86796,2.730871 -0.535323,-2.460154 -0.925247,-2.127458 -0.453253,0.804186 -0.773919,5.011159 -1.349395,2.678516 -0.604211,-2.014096 -0.950471,-2.45852 -1.331328,-2.872748 -0.02638,1.649395 0.183974,4.231872 -0.983808,1.382593 -0.561954,-1.031369 -0.516409,-0.193307 -0.719098,-0.169066 0.689396,1.855653 -3.215652,1.643992 -0.665992,-0.01431 1.273128,-1.45856 -0.633633,-0.286332 -1.977704,0.483525 -2.128156,1.574825 0.246887,-1.81136 0.449779,-2.804566 0.506724,-1.385482 -2.946423,3.345128 -2.161253,1.191258 0.405896,-1.602723 1.206576,-4.054879 -0.37803,-1.374763 -1.360424,2.404355 -1.544255,1.558826 -1.196862,-0.754001 0.467474,-3.021507 -0.786305,0.588956 -1.371663,1.624002 -0.327762,-0.1943 -0.20433,-4.902826 -0.709976,-2.318998 -0.422604,1.593048 -0.810878,4.159116 -1.395774,1.152094 -0.596223,-2.161566 -0.821566,-1.678013 -1.088313,-1.58481 0.18579,2.483818 -0.20206,2.685682 -1.227151,0.352587 -0.26968,0.17375 -0.700107,-0.180069 -0.176242,2.168178 1.416185,2.931101 -1.91662,0.312608 -1.015981,-0.352817 0.916822,-0.436023 -1.767246,-0.587357 -2.023036,-0.237242 -2.586909,0.416239 1.029965,-1.5616 1.631825,-2.375927 -0.211536,-0.232897 -0.02567,-0.752446 -2.232549,0.162289 -0.753798,0.02106 2.522001,-2.961765 1.07228,-2.212667 -1.029521,0.352858 -4.10347,2.949097 -2.635121,0.561006 0.883357,-1.822239 1.643784,-3.470057 -0.361695,-1.193443 -1.849914,2.280824 -0.308617,-1.283838 -0.196112,-2.38567 -0.166611,-0.438147 -2.022236,3.064613 -2.369704,2.841678 -0.08352,-0.907981 0.701458,-5.168923 -0.189472,-2.959765 -0.833361,2.334399 -1.291658,2.41068 -1.311386,-0.153511 -0.114097,-2.212323 -0.753843,1.777903 -1.078576,2.614487 0.390889,0.167788 -1.682627,-1.740174 -0.193613,-2.373906 -1.265105,-0.537975 -1.114393,-0.439343 -1.5194,-1.01722 0.472811,1.707942 -2.847723,0.776556 -0.270728,-0.578407 1.440241,-1.12567 0.687218,-1.067701 0.132299,-1.076592 -2.720788,1.336608 -1.203822,-0.291596 -0.04809,-1.667073 -0.05957,-0.377248 -1.9097,0.830003 -3.180479,1.509258 -0.826687,0.197121 1.519514,-3.346644 1.137584,-3.472505 -0.995562,0.829271 -3.085053,3.557548 -1.958926,0.703669 0.912285,-2.713743 0.160723,-1.817722 -1.025694,0.02173 -1.454529,2.687964 -0.659686,-0.884341 -0.685929,-2.171466 0.183884,-2.119588 -1.414417,3.480578 -1.539855,1.951733 -0.155232,-2.024562 -0.32946,-3.804258 -0.872915,-0.824274 -0.942311,2.475853 -1.397394,-1.308469 -0.209571,-0.854771 -1.879699,-0.255531 -1.414631,-0.500774 -1.907339,-0.950386 0.241943,1.442444 -2.445869,1.025884 0.119797,-0.425696 2.118501,-1.476471 0.0028,-0.64886 0.831912,-1.42679 -2.235694,0.985231 -2.761612,0.778764 -0.914512,-1.081674 0.977701,-1.245022 -1.176927,0.197167 -2.385455,0.833207 -1.800126,1.195833 0.627031,-2.21581 0.787984,-3.157431 -0.105225,-0.506218 -3.172113,3.731021 -2.200349,1.196029 0.57999,-1.995193 0.91175,-3.448796 -0.581125,-0.921403 -1.356583,2.509843 -1.333645,1.148323 -1.05964,-0.917767 0.49134,-3.086346 -0.654586,0.161057 -1.253046,1.290594 -0.29345,0.418464 -0.318704,-2.338948 -0.48163,-2.745456 0.177139,0.124584 -2.104361,0.166811 -2.753413,-0.235547 1.469245,-0.729788 4.028124,-1.732966 0.920832,-1.314499 -2.942922,0.558642 -1.17415,-0.704424 0.243753,-1.831831 1.314801,-0.984926 0.09278,-0.660588 0.142787,-0.937275 -2.525197,1.187012 -2.024355,0.264903 -0.496485,-1.373035 0.636914,-0.975198 -1.874937,0.765613 -2.983765,1.301094 -0.82742,0.196355 1.520998,-3.345093 1.136458,-3.473682 -1.004508,0.823582 -3.115871,3.55507 -1.98905,0.704846 0.912285,-2.713743 0.160723,-1.817722 -1.025694,0.02173 -1.361289,2.350753 -0.694337,-0.09169 -0.730086,-1.597348 0.563673,0.165022 0.05664,-2.098842 -0.593655,-0.465874 -0.913625,-0.98272 -2.858679,-0.490263 -1.220663,-1.114278 2.834197,-0.464849 1.599316,-0.738031 -0.529515,-0.969104 -1.134062,-0.280237 4.401579,-1.863852 1.046213,-1.438779 -2.403747,0.350178 -2.855968,-0.05417 -0.69272,-1.469757 1.757653,-1.284946 0.630816,-0.990247 0.547712,-1.282063 -2.525197,1.187012 -2.024355,0.264903 -0.496485,-1.373035 0.518882,-0.862447 -1.573073,0.539065 -2.782966,1.171233 -1.285428,0.635275 0.935627,-2.551299 1.128329,-3.527093 -0.866472,0.585648 -3.262791,3.80832 -2.245183,1.146348 0.759396,-2.386621 0.555212,-2.670898 -0.798779,-0.446525 -1.426992,2.706349 -1.01413,0.25348 -0.886466,-1.399654 C 17.064404,42.136554 15.781561,45.937527 15.25,46.8125 15.125,45.677083 15,44.541667 14.875,43.40625 Z m 16.59375,21.8125 c 0.428248,2.772589 -3.446209,0.31004 -0.530802,0.146428 0.176934,-0.04881 0.353868,-0.09762 0.530802,-0.146428 z M 11.1875,79.53125 c 2.330819,0.921775 -0.690195,2.931237 -0.653138,1.422908 0.217713,-0.474303 0.435425,-0.948605 0.653138,-1.422908 z M 59.75,88.75 c 1.461594,1.574857 -2.638202,0.523133 -0.199771,0.09719 z m -35.34375,3 c 0.9084,2.137599 -2.860654,0.955942 -0.42517,0.04361 l 0.264527,-0.02713 z m 8.4375,4.59375 c 1.687175,1.466484 -1.258797,3.355078 -0.147619,0.718415 0.04921,-0.239472 0.09841,-0.478943 0.147619,-0.718415 z M 96.65625,106.75 c 3.089355,-0.53872 0.05777,1.99176 -0.236656,0.53785 0.07888,-0.17928 0.157771,-0.35857 0.236656,-0.53785 z M 81.1875,117.03125 c 2.809074,0.21425 0.0103,2.1868 2.4375,1.03125 1.350375,0.62856 -1.206133,3.16632 -1.288012,0.69832 -0.377966,-0.57994 -0.767295,-1.15241 -1.149488,-1.72957 z"
         id="path3861"
         sodipodi:nodetypes="cccccccccccccccccccccccccccccccccccccccccccccccccccccccccccccccccccccccccccccccccccccccccccccccccccccccccccccccccccccccccccccccccccccccccccccccccccccccccccccccccccccccccccccccccccccccccccccccccccccccccccccccccccccccccccccccccccccccccccccccccccccccccccccccccccccccccccc" />
      <path
         style="fill:#ffffff;fill-opacity:1;fill-rule:nonzero;stroke:none;stroke-width:10;stroke-linecap:butt;stroke-miterlimit:4;stroke-dasharray:none;stroke-dashoffset:0;stroke-opacity:1"
         d="m 18.96875,43.40625 c -0.453516,0.784426 -0.775375,4.682259 -1.351173,2.574959 -0.607893,-1.906457 -0.989704,-2.347224 -1.279715,-2.296415 0.157438,2.259257 -0.170028,2.7066 -1.214158,0.476023 -0.21881,0.274289 -0.605907,-0.04207 -0.086,2.095038 0.851755,3.028352 -1.239391,-0.785679 -1.102702,-0.03211 -1.81714,-1.442017 -0.664931,-0.485922 -0.591251,1.182502 -1.43633,-0.05095 -0.597015,-2.647859 -1.522264,-0.787353 -0.587387,-1.287225 0.491424,3.313582 -0.99712,1.13735 C 10.266437,46.073825 9.8121448,45.349527 9.7010861,46.398132 9.9741617,49.018103 9.192617,47.697332 8.34375,46.125 c 0.032624,0.899129 -0.4952587,0.166342 0.068953,2.349605 0.8684634,2.651841 -1.160029,-0.114664 -2.0850879,-0.817353 -0.894638,-0.655213 2.1137066,3.747409 0.090075,1.963942 -2.080627,-1.598667 -1.7006132,-0.801627 -0.3998942,0.891821 1.3312591,1.655577 -1.9969599,-0.460784 -2.8895032,-0.605418 0.3769769,0.666919 3.3890288,2.756301 1.7698199,2.3492 -1.8401967,-0.448188 -3.4271438,-0.789349 -0.9801516,0.574281 2.4544675,1.17808 0.7119321,1.227831 -1.071361,1.24172 -2.52217522,-0.0856 0.6116275,0.669699 1.5484198,1.06534 -0.3437795,0.400679 -3.2908634,0.743931 -2.5251814,1.053369 0.8381942,0.205628 4.7093482,0.415587 2.8379895,0.779124 -1.5232633,-0.987905 0.341616,1.189997 -2.2019079,1.423648 0.075722,-0.05195 2.8109543,0.918656 0.4628297,1.730721 1.4520759,-1.121434 3.1985099,0.227375 0.8227709,0.559178 -2.81394592,-3.74e-4 -0.2244407,0.167601 -0.1352709,1.003322 2.7687257,-0.268909 0.032747,0.698944 -1.34375,0.84375 -0.1185334,0.320234 1.4584409,0.493758 3.0579029,0.708338 1.5087737,0.210165 -1.926651,1.314025 -2.5891529,1.916662 1.2161266,-0.02692 4.3731678,-0.855627 1.9423231,0.623994 -2.3310973,1.546403 0.219434,0.523796 1.4639269,0.188506 -0.7179634,0.956041 -3.0865696,3.225076 -0.6466947,1.669232 1.9282486,-1.049485 1.5166746,-0.762752 0.9366438,0.507405 -1.621578,2.339934 -0.1858733,1.134883 1.1971862,-0.0091 2.3243441,-0.227375 -1.3794536,1.391278 -0.6652727,1.171032 0.300916,-0.544475 1.3836271,1.591354 0.9229052,1.71554 0.5952005,-2.034657 3.0501545,-0.881003 0.6689077,0.006 -2.7061551,1.257533 0.3013641,0.23424 0.9925745,0.752459 1.4855253,-0.914808 -0.9344414,1.035082 -1.65625,1.59375 1.470183,-0.443573 3.6591733,-1.357155 1.5425314,0.544606 -1.9800597,1.959968 1.0545859,-0.06898 2.0094219,-0.443562 0.463935,0.05332 -2.4134564,3.737005 -0.936179,2.504254 0.874344,-0.452836 3.274735,-3.245495 2.267131,-0.812821 -0.317021,1.34244 -1.222531,3.870432 0.28219,1.507767 1.077327,-2.419499 1.564038,-0.303505 0.651951,0.699188 0.410115,1.964865 0.236937,-0.341233 1.887555,0.641685 2.761649,0.578851 -2.601406,0.894662 -1.204601,1.171383 -1.305418,0.348019 2.421158,0.467614 3.25,0.71875 -0.603788,0.50086 -4.210311,1.931128 -2.57409,1.738659 2.211915,-0.433651 2.744642,-0.17317 0.661526,1.16863 -2.089154,1.495721 3.23956,-1.219631 1.525256,0.314013 -1.629171,1.662822 -1.571732,1.993127 0.495391,0.735671 2.141778,-1.432604 -0.287383,1.528025 -0.615479,2.469273 0.797389,-0.427192 2.603226,-2.302259 3.071477,-2.186501 -0.08186,0.865429 -1.340064,4.110855 -0.571549,3.245753 0.939938,-1.211692 2.202836,-3.263193 1.605305,-0.476926 -0.462816,2.764956 0.504957,0.351474 1.110968,-0.852579 0.853243,-2.70502 0.895692,0.390118 1.205095,1.575549 0.256406,2.524181 0.617506,-1.280453 0.92985,-2.137792 0.501955,1.096838 1.37622,4.406341 1.207398,1.516697 -0.03138,-2.153763 0.481946,0.0264 1.35506,0.901504 -1.280106,1.198008 3.446573,-1.337542 1.800234,0.178101 -1.629171,1.662822 -1.571732,1.993127 0.495391,0.735671 2.141778,-1.432604 -0.287383,1.528025 -0.615479,2.469273 0.797389,-0.427192 2.603226,-2.302259 3.071477,-2.186501 -0.08186,0.865429 -1.340064,4.110855 -0.571549,3.245753 0.939938,-1.211692 2.202836,-3.263193 1.605305,-0.476926 -0.462816,2.764956 0.504957,0.351474 1.110968,-0.852579 0.853243,-2.70502 0.895692,0.390118 1.205095,1.575549 -0.299182,2.473035 1.257875,-1.65117 2.039996,0.711087 -2.031736,1.655198 0.06381,0.64262 1.497807,0.281194 -0.465751,0.745153 -3.088224,3.188934 -0.84999,1.776579 2.128004,-1.416249 1.983324,-0.657744 0.740691,1.151404 -1.300848,1.953077 1.532276,-0.889699 2.229123,-1.254164 0.910948,-0.508076 -0.521079,2.583864 -0.538781,3.502671 0.351448,-0.0019 2.064601,-3.132224 2.058048,-2.063019 -0.04867,1.219045 -0.529986,4.124948 0.47473,1.489233 0.733485,-1.724859 1.429939,-3.175912 1.560981,-0.446261 0.27951,2.609966 0.59733,1.775373 0.929273,-0.328906 0.422706,-1.857293 0.60564,1.276752 1.120254,1.546207 -0.208571,1.136805 1.172633,-2.390182 1.319622,-0.0039 -2.666036,1.772875 1.046122,0.02838 1.282984,0.345956 -0.992963,1.173569 -2.673536,2.897009 -0.239335,1.329919 2.315735,-1.635571 1.001517,0.21963 0.214768,1.56758 -0.991803,1.60371 1.814691,-1.19755 2.515387,-1.55666 0.354415,0.26171 -0.739032,2.93143 -0.675708,3.53205 0.374993,0.12202 2.415572,-3.8469 1.963505,-1.48162 -0.257222,1.99664 -0.200408,2.95792 0.728027,0.58366 0.829802,-2.41355 1.220786,-1.65505 1.420582,0.48548 0.388868,3.03984 0.33472,-0.29239 1.103272,-1.07524 0.682489,0.60076 0.854102,3.05923 1.12104,1.65226 2.558513,-1.80121 -0.586142,2.34027 0.668352,1.1857 1.623005,-0.934 3.090067,-1.71812 1.43296,0.50047 -1.663134,2.3922 0.572289,0.23545 1.585434,-0.49511 1.691114,-1.69634 -0.0053,1.77665 -0.02012,2.68343 -0.377239,1.38566 1.413275,-1.58261 1.965693,-2.07028 0.08031,0.76086 -0.655479,4.55258 0.220766,2.42602 0.640592,-1.04758 1.573628,-4.19824 1.675703,-1.37312 0.274451,1.89022 0.554777,3.38509 0.898153,0.63819 0.224372,-2.78959 0.943448,0.60277 1.472103,1.61558 0.02456,-1.26031 0.07384,-3.31854 0.541912,-1.80003 0.947904,1.65384 0.576526,1.76202 2.632772,0.96716 1.567499,-0.61418 -2.712691,2.98143 -0.781792,1.87369 1.623903,-0.94815 3.049322,-1.70473 1.403121,0.50322 -1.663134,2.3922 0.572289,0.23545 1.585434,-0.49511 1.687564,-1.69725 0.01166,1.78101 0.0055,2.68999 -0.365254,1.37436 1.394177,-1.56539 1.940097,-2.04559 0.07856,0.75675 -0.654326,4.52315 0.220766,2.39477 0.641921,-1.04783 1.568059,-4.19719 1.686613,-1.3752 0.287187,1.88595 0.579004,3.38954 0.922308,0.6411 0.230731,-2.76851 0.934934,0.67146 1.451563,1.65183 -0.04732,-1.86564 -0.05021,-3.5713 1.121882,-1.04728 1.025523,1.68 -0.94247,-3.77406 0.34992,-1.96966 1.24748,1.47929 2.193413,2.4647 1.034448,0.003 -1.234158,-2.30579 -0.178959,-1.74308 1.382014,-0.54665 1.296736,1.48673 1.947194,0.58266 3.566754,-0.20702 1.550873,-0.93807 -1.390006,2.62621 -0.885177,2.58422 0.783334,-0.31329 3.233684,-3.18255 2.778652,-1.59711 -0.09717,0.89675 -1.465444,4.36444 -0.14468,2.37676 1.219448,-1.93852 1.696465,-1.94645 1.265728,0.40609 -0.358524,2.42204 0.896273,-1.10841 1.365297,-1.78933 0.776661,-2.15717 0.706308,1.74491 1.075129,2.50529 0.319699,1.87694 0.543972,-3.48624 1.017952,-2.16267 0.617982,1.77537 1.207106,3.38506 1.023811,0.55998 -0.172974,-2.08057 2.057911,3.48936 1.223979,0.25773 -0.820947,-2.6884 0.421919,-1.14078 1.543816,0.15856 0.76296,0.68225 -0.798412,-2.47398 -0.960869,-3.31999 0.914035,0.48847 2.905088,2.07116 3.288042,2.05371 0.476926,-0.0625 -2.678564,-3.17204 -1.01188,-2.36995 1.450446,0.62843 3.320908,1.54273 1.216401,-0.22038 -1.99232,-1.55294 -1.260889,-1.76265 0.890522,-1.27209 2.837815,0.64515 -0.0051,-0.63457 -1.049506,-1.30488 -1.091567,-0.64618 3.143731,-0.1398 2.799251,-0.52344 -1.11594,-0.49608 -4.373792,-1.08461 -1.54719,-1.41054 2.88182,-0.44513 -0.189622,-0.586 -1.436531,-0.82011 0.798274,-0.47533 4.098801,-1.54216 1.481131,-1.20797 -2.213928,0.29973 -2.797885,-0.005 -0.683482,-1.31021 1.699262,-1.16594 0.560337,-0.87432 0.509878,-1.14698 -2.21997,1.16671 -2.108639,0.0102 -0.407914,-0.95634 0.2722,-0.856961 -0.178655,-0.0186 -1.566194,-0.996796 -2.035044,-1.284015 3.065762,-0.600448 1.728805,-1.075014 -1.433683,-0.508126 -3.977831,-1.065292 -1.10264,-1.383131 3.069687,-0.473629 -1.415633,-0.467612 -1.361823,-0.8722 1.730907,-0.734689 3.29039,-1.428352 0.485472,-1.077481 -2.815968,0.53087 -0.411601,-0.890096 0.658757,-1.812287 1.207533,-0.845893 -0.635958,-0.09892 0.145377,-0.744628 -2.094297,0.873638 -2.605707,0.703134 -0.817074,-0.984579 0.886913,-1.046053 -1.182498,0.233922 -2.262966,0.767986 -1.706479,1.071493 0.61278,-2.052476 0.77692,-2.930466 -0.485795,0.05568 -3.03549,3.328161 -2.176828,1.147882 0.714692,-2.151003 0.657244,-2.726702 -0.73072,-0.587907 -1.424169,2.50884 -0.827785,-0.280268 -0.766869,-1.665366 0.258139,-2.060424 -1.194655,2.424493 -1.438951,1.870347 -0.168967,-1.522074 -0.257037,-4.013487 -0.791851,-1.151754 -0.368067,2.758343 -0.935405,0.971129 -1.497908,-0.705787 -0.474938,-1.033876 -0.763766,-0.951753 -0.697949,1.050477 0.05077,1.657814 -1.640135,-2.710709 -1.336254,-0.874558 -0.437723,-1.108967 0.434675,3.112302 -1.554696,1.333692 1.403882,-1.468315 1.413513,-1.868939 -0.307559,-0.829043 -1.636072,1.048372 -2.38081,1.212922 -1.089767,-0.769246 1.463828,-2.455412 0.03494,-1.045274 -1.221511,0.134425 -1.110599,1.100262 1.062162,-3.560763 0.161915,-2.518259 -0.728538,0.677663 -2.458284,4.016092 -1.960806,1.435542 0.217029,-1.924931 0.276059,-3.272919 -0.725023,-0.749824 -0.888939,2.725932 -0.595825,-1.89678 -0.957021,-1.684661 -0.449031,0.902523 -0.778071,4.618624 -1.374024,2.076129 -0.594494,-1.824907 -0.999417,-2.330885 -1.193956,-1.787968 0.229865,2.552733 -0.358777,2.036651 -1.33243,0.07705 -0.05528,0.965647 -0.283346,-0.263381 -0.392172,1.439636 -2.693066,1.331514 -0.157834,-1.358474 -0.169658,-1.519876 -0.232563,-0.196325 -2.216735,1.071118 -3.281738,1.571093 0.219174,-0.79263 2.284648,-4.050576 1.103588,-2.973507 -1.344961,1.381093 -2.351197,2.206066 -1.356317,-0.254409 0.956848,-2.655654 -0.879611,0.418278 -1.607886,1.21912 -0.833138,1.01024 -0.0049,-2.394768 -0.139385,-3.241204 -0.640132,1.041525 -1.661759,4.216162 -1.606457,1.369213 -0.05384,-2.913999 -0.598736,0.139159 -0.990267,1.328696 -0.368958,1.622515 -1.150398,-2.855493 -1.476521,-2.482028 -0.570064,-1.169917 -0.0796,2.385407 -0.651791,1.923448 -0.957057,-1.852906 -1.15662,-1.529164 -1.318631,-1.151332 -0.02149,0.911241 1.162487,4.057729 -0.248059,2.354133 -1.709377,-1.358731 1.182801,-1.257535 -1.539437,-1.454543 -0.156786,0.159719 -3.206272,0.617044 -0.604909,-0.852889 1.53718,-1.060871 1.301261,-1.210291 1.101847,-1.37723 0.215642,-0.463967 -3.768159,1.505972 -1.294977,-0.566748 1.492693,-1.522331 0.281868,-0.968736 -1.123449,-0.171855 -2.308921,1.699336 -0.768644,-0.61281 -0.197478,-1.914986 1.063645,-1.954085 -1.930817,1.741931 -1.987712,1.162944 0.23496,-1.176854 1.416149,-4.282449 -0.126255,-1.836426 -1.206404,1.927212 -1.719018,2.027509 -1.285316,-0.364075 0.462394,-2.847269 -0.755126,0.375449 -1.363556,1.397359 -0.212685,-0.876927 -0.19214,-4.451162 -0.687527,-1.861439 -0.524038,1.759525 -0.602644,2.538398 -0.974505,1.46651 -0.544859,-2.043236 0.390001,-0.924453 -0.9375,-2.5 -0.179732,1.036288 -0.249571,-0.555363 -0.653486,0.976725 -2.647271,0.02879 1.251738,-2.115568 0.977529,-2.285944 -0.240707,-0.218562 -0.723243,-0.234835 -2.574043,0.434219 0.819248,-1.002288 2.502454,-2.65927 1.185931,-1.990772 -1.135954,0.467101 -3.754701,2.462032 -2.166703,0.122445 1.141856,-2.010948 1.053567,-2.384083 -0.644868,-0.613471 -1.574433,1.759044 0.0668,-1.726793 0.09439,-2.580702 -0.67752,0.534532 -2.425784,3.888593 -2.293554,2.290857 0.09378,-1.515358 0.494434,-4.139554 -0.587948,-1.405125 -0.927653,2.700069 -0.794592,-0.420209 -1.012103,-1.616828 -0.263588,0.356121 -0.753041,4.006581 -1.640135,1.76414 2.115717,-1.085807 -0.59366,-0.599461 -0.664505,-1.504663 -0.286232,0.290285 -0.159724,-0.444986 -0.611482,0.76111 -2.064525,-0.04924 1.247563,-1.674362 1.778477,-2.351991 -1.089944,0.270771 -0.180664,-0.535937 -2.40851,0.375312 -0.690706,-0.01973 2.078075,-2.365872 1.18976,-2.094062 -0.891394,0.223373 -3.935155,2.689196 -2.823663,0.825855 0.659107,-1.38006 1.918304,-3.562022 -0.05878,-1.419337 -1.847861,2.192788 -0.645602,-0.589285 -0.38397,-1.837161 0.03338,-0.807079 -1.919453,2.711021 -2.217134,2.402577 -0.09448,-0.78745 0.674477,-4.72777 -0.21283,-2.620136 -0.869866,1.653279 -0.958736,2.342112 -1.165352,0.535486 0.245962,-2.151186 -0.394267,-0.852485 -2.250993,-1.403219 -1.537051,-0.152555 3.945534,-1.601133 1.155092,-1.294007 -1.86688,0.17104 -3.479006,0.247615 -1.123669,-1.146985 1.810596,-1.244043 0.873799,-1.07115 0.70284,-1.301758 -2.369142,1.054938 -1.910109,0.244287 -0.420212,-1.246366 0.399527,-0.697596 -1.480384,0.454447 -2.642806,1.039599 -1.22864,0.597297 0.855537,-2.257891 1.035226,-3.128298 -0.831141,0.516169 -3.149439,3.440815 -2.150067,0.992441 0.874921,-2.462439 0.271424,-1.917584 -0.947041,-0.121804 -1.273145,2.074227 -0.615321,-0.162128 -0.652892,-1.464387 0.609793,-0.273149 0.05519,-1.301755 -0.809656,-0.478895 -0.728471,-0.920204 -2.682562,-0.314407 -0.709948,-0.980297 2.832392,-0.432023 0.734947,-0.643996 -0.917406,-0.875836 -0.524556,-0.272223 4.083128,-1.517118 1.479371,-1.2252 -1.859291,0.164218 -3.525839,0.256996 -1.154909,-1.146699 1.673309,-1.175078 1.171888,-1.288989 0.496462,-1.23291 -2.552527,1.150657 -1.316783,-0.175491 -0.08186,-1.501104 -0.06667,-0.303237 -1.828928,0.74957 -2.993864,1.340347 -0.81298,0.225673 1.463166,-3.012751 1.070327,-3.077807 -0.961083,0.73944 -3.001709,3.245735 -1.905722,0.618435 0.968046,-2.670148 -0.08896,-1.200819 -1.154439,0.285816 -1.24791,2.076748 -0.294251,-1.700882 -0.42786,-2.587267 -0.267074,-0.394526 -1.617931,4.202496 -1.563367,1.659385 -0.07779,-0.693073 -0.155588,-1.386145 -0.233382,-2.079218 z m -6.3125,4.875 c 0.329338,0.304091 -0.135719,0.593199 0,0 z m 14.71875,6.4375 c -0.570165,2.809032 -2.078354,-0.557606 0,0 z M 25.75,54.8125 c -0.02656,1.021258 -1.671385,-0.506886 0,0 z m -0.84375,1.375 c 0.831188,-0.239999 0.130113,1.629026 0,0 z M 5.3125,58.21875 c -1.4694572,1.042562 -3.0952798,-0.118546 0,0 z M 6,60.46875 c 0.3467544,0.104989 -0.3467544,0.104989 0,0 z m 28.8125,2.375 c 0.304346,2.508342 -3.246047,0.22811 -0.520151,0.132402 0.173384,-0.04413 0.346767,-0.08827 0.520151,-0.132402 z m -0.53125,1.84375 c 0.07702,2.135482 -1.303237,-0.290034 0,0 z M 32.25,64.78125 c 0.137584,-0.08558 0.04808,0.282653 0,0 z m -1.125,1.25 c 0.172985,-0.128791 0.09754,0.31093 0,0 z m 9.3125,3.78125 c 0.248194,0.381686 -0.311095,0.09852 0,0 z m 1.28125,1.09375 c 0.257738,0.600138 -0.757444,0.08479 0,0 z m 1.8125,0.78125 c 0.04563,1.233974 -0.771565,-0.06318 0,0 z M 15.875,74.78125 c 0.327504,0.708001 -0.550354,0.509041 0,0 z m -0.40625,0.8125 c 2.217711,0.87471 -0.749743,2.684395 -0.65055,1.277866 0.21685,-0.425955 0.4337,-0.851911 0.65055,-1.277866 z M 50.3125,76.0625 c 0.510313,0.545059 -0.577529,0.919236 0,0 z m -0.28125,0.21875 c 0.283063,0.581443 -0.895387,0.341656 0,0 z m -32.9375,0.4375 c 1.479567,0.561754 -0.472643,0.7648 0,0 z M 51.65625,77.25 c 0.394005,1.286493 -0.995732,0.124955 0,0 z m -34.9375,1.125 c 0.184262,-0.0054 -0.08241,0.143634 0,0 z M 61.75,83.8125 c 1.180986,1.522291 -2.657415,0.311898 0,0 z m -33.84375,0.875 c 2.846182,-0.287096 0.04836,1.643797 0,0 z m -1.25,0.28125 c 1.713149,1.093009 -0.144227,1.94653 0,0 z m 35.65625,0.125 c 0.960459,1.075803 -1.038389,-0.160106 0,0 z m -1.34375,0.34375 c 1.101298,0.876229 -1.293498,-0.114711 0,0 z m -31.875,0.9375 c -0.53366,0.752729 -0.937345,-0.143875 0,0 z m -1.03125,0.09375 c 0.937859,1.950514 -2.694265,0.871588 -0.387446,0.04305 l 0.245851,-0.02732 z m 47.0625,0 c 0.103834,0.262569 -0.603722,0.174852 0,0 z m -1.96875,0.21875 c 0.324106,0.221348 -0.576856,0.286654 0,0 z m 2.03125,0.1875 c 1.441902,2.987173 -1.881251,0.624494 0,0 z M 73.75,88.03125 c 1.2522,1.525538 -1.172587,0.250168 0,0 z m 13.0625,1.65625 c 0.05242,0.434835 -0.612433,0.272201 0,0 z m -1.90625,0.15625 c 0.42193,0.408673 -0.749526,0.427874 0,0 z M 86.875,90.125 c 1.025738,2.160861 -1.33536,0.434249 0,0 z m -50.78125,0.46875 c 1.727895,1.086539 -1.169707,3.136078 -0.17708,0.822157 0.05903,-0.274053 0.118053,-0.548105 0.17708,-0.822157 z m 1.28125,0.1875 c 1.042536,0.844871 -0.507932,1.451215 0,0 z m 1.03125,0.15625 c 0.654956,-0.174084 -0.09763,0.412904 0,0 z m 47.125,0.28125 c 0.543097,0.5995 -0.511061,0.216452 0,0 z m -1,0.8125 c 0.167744,0.134812 -0.309435,0.06369 0,0 z m -46.09375,0.4375 c -1.368002,1.824847 -1.862055,-0.176426 0,0 z m 9.25,3.78125 c 1.661824,0.496835 -0.228833,1.790893 0,0 z m 1.4375,0.21875 c 0.212062,-0.08347 0.02174,0.101562 0,0 z M 46.78125,96.875 c 1.007601,0.928721 -0.499426,1.526829 0,0 z M 48.96875,98 c -1.029418,1.419241 -1.652576,-0.211614 0,0 z m 48.21875,0.4375 c -0.289581,0.443254 -0.716296,-0.20285 0,0 z m -0.25,1.4375 c 3.16242,-0.553773 -0.526195,1.98396 -0.122501,0.245 l 0.110625,-0.221248 z M 56,102.03125 c 0.571396,0.67857 -0.531893,1.00224 0,0 z m 2.90625,0.375 c -0.727601,0.96948 -0.990666,-0.1522 0,0 z M 57.25,102.5625 c 1.271508,0.5543 -0.54095,2.37454 0,0 z m 1.9375,0.96875 c -0.693715,1.32325 -1.195396,0.0467 0,0 z m 10.125,2.15625 c 2.846182,-0.2871 0.04836,1.6438 0,0 z m -1.25,0.21875 c 1.69763,1.13342 -0.146877,1.98329 0,0 z m 16.40625,0.90625 c 1.625124,-0.0945 1.137262,0.85053 0,0 z M 70.5,107.375 c -0.53366,0.75273 -0.937345,-0.14388 0,0 z m -1,0.0937 c 0.841966,1.94186 -2.700972,0.85918 -0.418456,0.0452 l 0.245931,-0.0266 z m 12.96875,0 c 3.120666,-0.21924 1.118775,1.5561 0,0 z m 2.96875,1 c -1.383838,1.73966 -2.784445,-0.28999 0,0 z m -3.28125,0.5625 c 2.657731,0.23338 0.02673,1.94735 2.396995,0.94012 1.244123,0.4138 -1.221693,2.80978 -1.174475,0.77452 -0.392938,-0.58176 -0.815541,-1.14273 -1.22252,-1.71464 z m 3.5625,0.59375 c -0.599345,1.10712 -1.346581,0.0708 0,0 z"
         id="path2310"
         transform="translate(-1.936722,2.884332)" />
      <path
         style="fill:url(#linearGradient2208);fill-opacity:1;fill-rule:evenodd;stroke:none;stroke-width:1px;stroke-linecap:butt;stroke-linejoin:miter;stroke-opacity:1"
         d="m 29.768454,40.916657 c -0.58175,-3.55942 12.98215,-8.82659 19.01544,-11.37577 4.37054,-1.84663 8.97161,-3.91751 13.6409,-4.15993 9.67984,-0.50257 19.64506,-0.40796 29.13021,2.40234 8.23961,2.44127 17.415646,2.61389 25.124766,6.24619 5.69165,2.68172 10.63245,6.84462 14.77327,11.75578 4.22686,5.01321 8.29906,10.27097 11.19716,16.11021 1.98653,4.00256 4.04775,7.97878 4.27705,12.64633 0.68148,13.87172 1.86444,27.753173 1.75421,41.681773 -0.0623,7.86928 1.5926,16.19536 -0.81368,23.72209 -4.60869,14.41577 -12.83266,27.44016 -18.04173,41.68402 -1.79719,4.91429 -0.72055,12.63603 -5.07652,14.75406 -2.60548,1.26688 -3.84918,-3.91521 -5.42811,-6.02305 -4.15171,-5.54247 -4.71385,-12.68007 -7.21016,-19.00517 -4.49232,-11.38257 -5.52418,-23.71605 -8.02138,-35.61743 -3.25078,-15.49286 -8.630946,-31.1043 -13.542786,-46.160263 -2.15258,-6.59817 -3.54856,-14.5352 -8.10007,-19.19688 -4.4154,-4.52227 -12.50127,-5.10832 -18.58697,-7.90547 -5.36347,-2.4652 -11.04494,-4.86484 -15.64466,-8.45307 -6.1336,-4.78481 -17.74346,-8.80151 -18.44694,-13.10576 z"
         id="path1323"
         sodipodi:nodetypes="csssssssssssssssssss"
         transform="matrix(0.77328,0,0,0.77328,15.63903,-3.39033)" />
      <path
         style="fill:#ffffff;fill-opacity:1;fill-rule:nonzero;stroke:none;stroke-width:10;stroke-linecap:butt;stroke-miterlimit:4;stroke-dasharray:none;stroke-dashoffset:0;stroke-opacity:1"
         d="m 114.5,104.59375 -1,3.5 -1.28125,-3.34375 -0.0312,0.6875 -0.3125,-0.8125 -0.0625,2.65625 -1.3125,-2.15625 0.125,0.8125 -0.4375,-0.6875 0.625,3.59375 -2.625,-2.46875 1.21875,2.78125 -2.625,-1.6875 1.9375,2.8125 -3.4375,-1.375 2.53125,2.5 -3.375,-0.6875 3.21875,2.1875 -2.5625,0.15625 -1.09375,0.0625 -0.25,0.0312 3.0625,1.03125 -2.875,0.6875 0.5,0.0937 -0.65625,0.15625 3.90625,0.5625 -3.3125,1.8125 3.09375,-0.3125 -2.34375,1.9375 2.65625,-0.78125 -1.96875,2.3125 3.0625,-1.5625 -1.71875,3.0625 3.15625,-2.46875 -0.96875,3.8125 0.0625,-0.0937 -0.0312,0.15625 2.03125,-2.59375 -0.21875,3.15625 v 0.0312 0.125 l 1.875,-3.75 0.75,4.03125 0.71875,-3.28125 1.15625,3 0.0625,-2.6875 1.40625,2.21875 -0.5,-3.09375 2.21875,2.40625 -1.34375,-3.75 3.4375,2.28125 -0.25,-0.375 0.1875,0.125 -1.8125,-2.59375 1.21875,0.46875 1.9375,0.8125 -2.78125,-2.8125 3.96875,0.5 -3,-1.75 3.46875,-0.1875 -3.25,-1.125 2.96875,-0.75 -2.90625,-0.4375 2.6875,-1.25 -3.625,0.125 L 122.75,110 l -0.9375,0.28125 0.65625,-0.5625 -2.5,0.78125 1.84375,-2.15625 -0.5,0.25 0.25,-0.3125 -3.21875,1.6875 1.625,-3.40625 -2.46875,2.1875 0.875,-3.3125 -2.34375,3.0625 0.28125,-3.71875 -1.46875,2.875 z"
         id="path2220"
         transform="translate(-1.767767,30.05204)" />
      <path
         sodipodi:nodetypes="cssssssssssssssssss"
         id="path4547"
         d="m 29.768454,40.916657 c -0.58175,-3.55942 12.98215,-8.82659 19.01544,-11.37577 4.37054,-1.84663 8.97161,-3.91751 13.6409,-4.15993 9.67984,-0.50257 19.64506,-0.40796 29.13021,2.40234 8.23961,2.44127 17.415646,2.61389 25.124766,6.24619 5.69165,2.68172 10.63245,6.84462 14.77327,11.75578 4.22686,5.01321 8.29906,10.27097 11.19716,16.11021 1.98653,4.00256 5.89356,8.26164 4.27705,12.64633 -4.36928,11.85141 -8.20431,14.18315 -12.6309,19.68957 -9.48246,11.795653 -10.83266,27.440163 -16.04173,41.684023 -1.79719,4.91429 -0.72055,12.63603 -5.07652,14.75406 -2.60548,1.26688 -3.84918,-3.91521 -5.42811,-6.02305 -4.15171,-5.54247 -1.68339,-14.70038 -4.1797,-21.02548 -4.492316,-11.38257 -8.534326,-20.68559 -13.051836,-33.597123 -5.22795,-14.94205 6.96079,16.630303 2.04895,1.57434 -2.15258,-6.59817 -5.56887,-16.55551 -10.12038,-21.21719 -4.4154,-4.52227 -12.50127,-5.10832 -18.58697,-7.90547 -5.36347,-2.4652 -11.04494,-4.86484 -15.64466,-8.45307 -6.1336,-4.78481 -17.74346,-8.80151 -18.44694,-13.10576 z"
         style="fill:url(#linearGradient4551);fill-opacity:1;fill-rule:evenodd;stroke:none;stroke-width:1px;stroke-linecap:butt;stroke-linejoin:miter;stroke-opacity:1"
         transform="matrix(0.77328,0,0,0.77328,15.63903,-3.39033)" />
    </g>
  </g>
</svg>
