<?xml version="1.0" encoding="UTF-8" standalone="no"?>
<svg
   xmlns:dc="http://purl.org/dc/elements/1.1/"
   xmlns:cc="http://creativecommons.org/ns#"
   xmlns:rdf="http://www.w3.org/1999/02/22-rdf-syntax-ns#"
   xmlns:svg="http://www.w3.org/2000/svg"
   xmlns="http://www.w3.org/2000/svg"
   xmlns:sodipodi="http://sodipodi.sourceforge.net/DTD/sodipodi-0.dtd"
   xmlns:inkscape="http://www.inkscape.org/namespaces/inkscape"
   width="30"
   height="30"
   viewBox="0 0 30 30"
   version="1.1"
   id="svg20"
   sodipodi:docname="xmas.svg"
   inkscape:version="1.0.1 (c497b03c, 2020-09-10)">
  <metadata
     id="metadata26">
    <rdf:RDF>
      <cc:Work
         rdf:about="">
        <dc:format>image/svg+xml</dc:format>
        <dc:type
           rdf:resource="http://purl.org/dc/dcmitype/StillImage" />
        <dc:title></dc:title>
      </cc:Work>
    </rdf:RDF>
  </metadata>
  <defs
     id="defs24" />
  <sodipodi:namedview
     pagecolor="#ffffff"
     bordercolor="#666666"
     borderopacity="1"
     objecttolerance="10"
     gridtolerance="10"
     guidetolerance="10"
     inkscape:pageopacity="0"
     inkscape:pageshadow="2"
     inkscape:window-width="809"
     inkscape:window-height="658"
     id="namedview22"
     showgrid="false"
     inkscape:showpageshadow="false"
     inkscape:zoom="7.5024142"
     inkscape:cx="6.672205"
     inkscape:cy="8"
     inkscape:window-x="0"
     inkscape:window-y="23"
     inkscape:window-maximized="0"
     inkscape:current-layer="svg20" />
  <g
     id="Calque_2"
     data-name="Calque 2"
     transform="matrix(1.6874111,0,0,1.6874111,3.7418971,1.5007101)">
    <g
       id="Layer_1"
       data-name="Layer 1">
      <g
         id="g16">
        <circle
           cx="5.47821"
           cy="9.3670197"
           r="0.42910999"
           id="circle10" />
        <circle
           cx="7.8664699"
           cy="9.3670197"
           r="0.42910999"
           id="circle12" />
        <path
           d="M 12.962,8.6661 10.78069,6.64845 10.48357,6.37869 a 0.76029,0.76029 0 0 0 -0.479,-0.17472 H 8.52055 A 0.57413,0.57413 0 0 1 8.96011,5.99223 H 9.51046 A 1.50937,1.50937 0 0 0 11.01817,4.48452 V 3.85211 l 0.93332,0.93445 h 0.97287 V 3.81374 l -1.4217,-1.42091 1.4217,-1.4199 V 0 h -0.97287 l -1.42,1.42 L 9.10978,0 h -0.972 V 0.97293 L 9.5586,2.39283 8.13778,3.81374 v 0.97282 h 0.972 L 10.09355,3.80279 V 4.48452 A 0.58382,0.58382 0 0 1 9.51046,5.0676 H 8.96011 A 1.50652,1.50652 0 0 0 7.50419,6.204 H 5.84052 A 1.50681,1.50681 0 0 0 4.3844,5.0676 H 3.83427 A 0.58382,0.58382 0 0 1 3.25119,4.48452 V 3.8029 L 4.2349,4.78656 h 0.972 V 3.81374 L 3.78608,2.39283 5.20693,0.97293 V 0 h -0.972 L 2.81317,1.42 1.39319,0 H 0.42032 V 0.97293 L 1.84205,2.39283 0.42032,3.81374 V 4.78656 H 1.39319 L 2.32657,3.85211 v 0.63241 a 1.50936,1.50936 0 0 0 1.5077,1.50771 H 4.3844 A 0.57448,0.57448 0 0 1 4.82419,6.20397 H 3.34013 A 0.76079,0.76079 0 0 0 2.85556,6.38343 L 2.56382,6.64867 0.36987,8.67851 a 1.0525,1.0525 0 0 0 -0.30746,1.12757 0.93888,0.93888 0 0 0 0.968,0.52258 l 0.02979,-2.2e-4 a 4.59975,4.59975 0 0 0 1.74694,-0.29313 l 0.28877,3.86589 a 1.691,1.691 0 0 0 1.689,1.60184 H 5.844 a 0.93879,0.93879 0 0 0 1.65664,0 H 8.55988 A 1.68793,1.68793 0 0 0 10.248,13.91136 l 0.28962,-3.87593 a 4.60123,4.60123 0 0 0 1.74677,0.293 l 0.0298,2.2e-4 A 0.93926,0.93926 0 0 0 13.28238,9.80607 1.06176,1.06176 0 0 0 12.962,8.6661 Z M 1.04618,9.40381 C 1.01367,9.40449 0.98726,9.40336 0.96491,9.40181 A 0.36826,0.36826 0 0 1 1.01074,9.3447 L 2.61574,7.86 C 2.63334,8.241 2.65298,8.67085 2.66946,9.028 2.634,9.07717 2.35862,9.38417 1.04618,9.40381 Z m 8.27918,4.44863 a 0.76609,0.76609 0 0 1 -0.76548,0.726 h -1.0726 a 0.93929,0.93929 0 0 0 -1.62988,0 H 4.78486 A 0.76921,0.76921 0 0 1 4.01848,13.84231 L 3.51711,7.12859 h 6.31052 z m 2.973,-4.44863 C 11.00488,9.3844 10.71842,9.08575 10.67689,9.03021 10.69201,8.68506 10.71142,8.24916 10.72926,7.85999 l 1.5919,1.47226 A 0.47574,0.47574 0 0 1 12.3785,9.40178 C 12.3559,9.40313 12.329,9.40471 12.29833,9.40381 Z"
           id="path14" />
      </g>
    </g>
  </g>
</svg>
